# WaveFront *.obj file (generated by Autodesk ATF)

mtllib painting-b_painting-b v3_frame-1.mtl

g frame-1

v 123.000000 -79.500000 10.000000
v -123.000000 -79.500000 10.000000
v -130.000000 -86.500000 3.000000
v 130.000000 -86.500000 3.000000
v 105.000000 -61.500000 0.000000
v -105.000000 -61.500000 0.000000
v -105.000000 -61.500000 10.000000
v 105.000000 -61.500000 10.000000
v -130.000000 -86.500000 0.000000
v 130.000000 -86.500000 0.000000
v -105.000000 148.500000 0.000000
v -105.000000 148.500000 10.000000
v 105.000000 148.500000 0.000000
v 130.000000 173.500000 0.000000
v -130.000000 173.500000 0.000000
v 105.000000 148.500000 10.000000
v 123.000000 166.500000 10.000000
v -123.000000 166.500000 10.000000
v -130.000000 173.500000 3.000000
v 130.000000 173.500000 3.000000
vt -5.800000 -0.494975 0.000000
vt 18.800000 -0.494975 0.000000
vt -6.500000 0.494975 0.000000
vt 19.500000 0.494975 0.000000
vt -21.000000 0.000000 0.000000
vt -0.000000 0.000000 0.000000
vt -21.000000 1.000000 0.000000
vt -0.000000 1.000000 0.000000
vt -0.000000 0.300000 0.000000
vt -26.000000 0.300000 0.000000
vt -0.000000 0.000000 0.000000
vt -26.000000 0.000000 0.000000
vt 8.700000 0.000000 0.000000
vt 29.700000 0.000000 0.000000
vt 8.700000 1.000000 0.000000
vt 29.700000 1.000000 0.000000
vt -10.500000 14.850000 0.000000
vt -13.000000 -8.650000 0.000000
vt -10.500000 -6.150000 0.000000
vt 13.000000 -8.650000 0.000000
vt 10.500000 -6.150000 0.000000
vt 10.500000 14.850000 0.000000
vt 13.000000 17.350000 0.000000
vt -13.000000 17.350000 0.000000
vt 21.000000 1.000000 0.000000
vt 0.000000 1.000000 0.000000
vt 21.000000 0.000000 0.000000
vt 0.000000 0.000000 0.000000
vt 12.300000 16.650000 0.000000
vt 10.500000 14.850000 0.000000
vt 12.300000 -7.950000 0.000000
vt 10.500000 -6.150000 0.000000
vt -10.500000 -6.150000 0.000000
vt -12.300000 16.650000 0.000000
vt -10.500000 14.850000 0.000000
vt -12.300000 -7.950000 0.000000
vt 0.494975 -16.625000 0.000000
vt 0.494975 7.975000 0.000000
vt -0.494975 -17.325000 0.000000
vt -0.494975 8.675000 0.000000
vt -18.800000 -0.494975 0.000000
vt 5.800000 -0.494975 0.000000
vt -19.500000 0.494975 0.000000
vt 6.500000 0.494975 0.000000
vt 0.494975 26.025000 0.000000
vt -0.494975 25.325000 0.000000
vt 0.494975 0.025000 0.000000
vt -0.494975 0.725000 0.000000
vt 8.700000 0.000000 0.000000
vt 34.700000 0.000000 0.000000
vt 8.700000 0.300000 0.000000
vt 34.700000 0.300000 0.000000
vt 0.000000 0.000000 0.000000
vt 21.000000 0.000000 0.000000
vt 0.000000 1.000000 0.000000
vt 21.000000 1.000000 0.000000
vt 26.000000 0.300000 0.000000
vt -0.000000 0.300000 0.000000
vt 26.000000 0.000000 0.000000
vt -0.000000 0.000000 0.000000
vt 26.000000 0.300000 0.000000
vt -0.000000 0.300000 0.000000
vt 26.000000 0.000000 0.000000
vt -0.000000 0.000000 0.000000
vn 0.000000 -0.070711 0.070711
vn 0.000000 -0.070711 0.070711
vn 0.000000 -0.070711 0.070711
vn 0.000000 -0.070711 0.070711
vn 0.000000 0.100000 0.000000
vn 0.000000 0.100000 0.000000
vn 0.000000 0.100000 0.000000
vn 0.000000 0.100000 0.000000
vn 0.000000 -0.100000 0.000000
vn 0.000000 -0.100000 0.000000
vn 0.000000 -0.100000 0.000000
vn 0.000000 -0.100000 0.000000
vn 0.100000 0.000000 0.000000
vn 0.100000 0.000000 0.000000
vn 0.100000 0.000000 0.000000
vn 0.100000 0.000000 0.000000
vn -0.000000 0.000000 -0.100000
vn -0.000000 0.000000 -0.100000
vn -0.000000 0.000000 -0.100000
vn -0.000000 0.000000 -0.100000
vn -0.000000 0.000000 -0.100000
vn -0.000000 0.000000 -0.100000
vn -0.000000 0.000000 -0.100000
vn -0.000000 0.000000 -0.100000
vn -0.100000 0.000000 0.000000
vn -0.100000 0.000000 0.000000
vn -0.100000 0.000000 0.000000
vn -0.100000 0.000000 0.000000
vn 0.000000 0.000000 0.100000
vn 0.000000 0.000000 0.100000
vn 0.000000 0.000000 0.100000
vn 0.000000 0.000000 0.100000
vn 0.000000 0.000000 0.100000
vn 0.000000 0.000000 0.100000
vn 0.000000 0.000000 0.100000
vn 0.000000 0.000000 0.100000
vn -0.070711 0.000000 0.070711
vn -0.070711 0.000000 0.070711
vn -0.070711 0.000000 0.070711
vn -0.070711 0.000000 0.070711
vn 0.000000 0.070711 0.070711
vn 0.000000 0.070711 0.070711
vn 0.000000 0.070711 0.070711
vn 0.000000 0.070711 0.070711
vn 0.070711 0.000000 0.070711
vn 0.070711 0.000000 0.070711
vn 0.070711 0.000000 0.070711
vn 0.070711 0.000000 0.070711
vn 0.100000 0.000000 0.000000
vn 0.100000 0.000000 0.000000
vn 0.100000 0.000000 0.000000
vn 0.100000 0.000000 0.000000
vn 0.000000 -0.100000 0.000000
vn 0.000000 -0.100000 0.000000
vn 0.000000 -0.100000 0.000000
vn 0.000000 -0.100000 0.000000
vn -0.100000 0.000000 0.000000
vn -0.100000 0.000000 0.000000
vn -0.100000 0.000000 0.000000
vn -0.100000 0.000000 0.000000
vn 0.000000 0.100000 0.000000
vn 0.000000 0.100000 0.000000
vn 0.000000 0.100000 0.000000
vn 0.000000 0.100000 0.000000
usemtl Steel_-_Satin
f 1/1/1 2/2/2 4/3/3
f 4/3/3 2/2/2 3/4/4
f 5/5/5 6/6/6 8/7/7
f 8/7/7 6/6/6 7/8/8
f 4/9/9 3/10/10 10/11/11
f 10/11/11 3/10/10 9/12/12
f 6/13/13 11/14/14 7/15/15
f 7/15/15 11/14/14 12/16/16
f 13/17/17 10/18/18 5/19/19
f 5/19/19 10/18/18 9/20/20
f 5/19/19 9/20/20 6/21/21
f 6/21/21 9/20/20 11/22/22
f 11/22/22 9/20/20 15/23/23
f 11/22/22 15/23/23 14/24/24
f 10/18/18 13/17/17 14/24/24
f 14/24/24 13/17/17 11/22/22
f 8/25/25 16/26/26 5/27/27
f 5/27/27 16/26/26 13/28/28
f 17/29/29 16/30/30 1/31/31
f 1/31/31 16/30/30 8/32/32
f 1/31/31 8/32/32 7/33/33
f 17/29/29 18/34/34 16/30/30
f 16/30/30 18/34/34 12/35/35
f 12/35/35 18/34/34 2/36/36
f 12/35/35 2/36/36 7/33/33
f 7/33/33 2/36/36 1/31/31
f 2/37/37 18/38/38 3/39/39
f 3/39/39 18/38/38 19/40/40
f 18/41/41 17/42/42 19/43/43
f 19/43/43 17/42/42 20/44/44
f 20/45/45 17/46/46 4/47/47
f 4/47/47 17/46/46 1/48/48
f 10/49/49 14/50/50 4/51/51
f 4/51/51 14/50/50 20/52/52
f 11/53/53 13/54/54 12/55/55
f 12/55/55 13/54/54 16/56/56
f 3/57/57 19/58/58 9/59/59
f 9/59/59 19/58/58 15/60/60
f 19/61/61 20/62/62 15/63/63
f 15/63/63 20/62/62 14/64/64
# 20 vertices
# 64 texture params
# 64 normals
# 40 facets

# 1 groups
