v -10.19951916 1.002095342 7.554747105
vn 0.0002424274571 0.002135054441 0.9999976754
v -6.859867573 1.099571466 -3.811469316
vn 0.08631674945 0.9962672591 -0.001005469006
v -10.06475544 1.388670325 7.432036877
vn 0.08621039242 0.9962753654 0.001783470274
v -10.33597755 1.375220418 7.547623158
vn 0.03217772022 0.2224341929 0.974416554
v -10.06475639 1.36339426 7.545679092
vn 0.01846575923 0.3222630918 0.9464700222
v -9.849431992 1.341061473 -7.540860653
vn 0.07196002454 0.883874476 -0.4621554911
v -9.087140083 -0.0361074768 7.649014473
vn -2.894362115e-05 -0.9994311333 0.03372545168
v -9.398143768 1.19078505 7.554702759
vn 0.001319680014 0.04563241079 0.9989574552
v -9.413824081 1.30545032 -7.539400578
vn 0.08436266333 0.8927202821 -0.4426436424
v -7.338977814 0.2655589581 7.554748058
vn 1.064403108e-07 0.08924457431 0.9960097671
v -9.034113884 1.299329996 7.432036877
vn 0.08640895039 0.9962584376 0.001608353225
v -9.196846962 1.264701247 -7.546595573
vn 0.02122285403 0.2107968926 -0.9772994518
v -8.79326725 1.263560772 -7.403789997
vn 0.08588038385 0.9962633252 -0.009162138216
v -8.952746391 1.25373435 -7.54561758
vn 0.0494582355 0.7539692521 -0.6550452113
v -8.449139595 1.222369671 -7.538865566
vn 0.07272978872 0.8885953426 -0.4528893232
v -8.223315239 1.098387003 7.554748058
vn 0.000939020596 0.01213802956 0.9999259114
v -8.023812294 1.19685781 -7.407179832
vn 0.08670294285 0.9962037206 -0.007791948505
v -8.105179787 0.9571742415 -7.554748058
vn 0.0006722288672 0.008547082543 -0.9999632239
v -6.806281567 0.7813038826 -7.554748058
vn 0.0007149177254 0.0080150906 -0.9999676347
v -7.922103882 1.17869854 7.544081211
vn 0.07480590791 0.8785863519 0.4716885388
v -7.146579266 1.006333113 -7.554747105
vn 0.006184186321 0.04274811223 -0.9990667701
v -8.394873619 -0.03650410101 -1.061157107
vn 0.0001909576386 -0.9999999404 -0.0001902808581
v -7.189805984 1.024979711 7.554748058
vn 0.003027667757 0.04011083394 0.9991906285
v -7.528832912 1.144829273 7.546410561
vn 0.0371446833 0.4897206724 0.8710877895
v -6.857135773 0.7757947445 7.554746628
vn 0.001789172296 0.00584618235 0.9999812841
v -6.735509396 0.4689751863 7.554748058
vn 2.040302292e-07 2.67176506e-06 1
v -6.701605797 1.08221972 -7.430911541
vn 0.08632306755 0.9962233305 -0.009348998778
v -6.810096264 1.067807317 -7.543236732
vn 0.05671241507 0.5597938299 -0.8266889453
v -6.484629154 1.038604617 -7.545381069
vn 0.02527686581 0.3711489141 -0.9282292724
v -6.267652035 1.059521675 7.432036877
vn 0.08639106899 0.996260941 0.0008301057387
v -5.954764366 1.006546855 -7.53902483
vn 0.07484253496 0.8577962518 -0.5085117221
v -5.806574821 1.010261178 7.536394596
vn 0.06617612392 0.8386523724 0.5406319499
v -3.771565199 0.2655589581 7.554746628
vn 1.808115667e-05 0.1840072721 0.9829248786
v -5.980326176 0.7088368535 7.554746628
vn -8.258513117e-05 0.00709652761 0.9999747872
v -5.535353184 0.9577633142 -7.543041706
vn 0.05999985337 0.6628075242 -0.7463821173
v -5.670964718 0.3740476072 -7.554746628
vn -2.330033624e-07 4.014144906e-06 -1
v -5.481109142 0.9913136363 7.404915333
vn 0.08645824343 0.9962531328 0.002148288069
v -5.28108263 0.6723914146 -7.554747105
vn 0.0004603026027 0.0073057306 -0.9999731779
v -4.836125851 0.9205188751 -7.424131393
vn 0.08647347242 0.9962235093 -0.007813341916
v -5.089626789 0.9236946106 -7.543053627
vn 0.0374466069 0.4542894661 -0.8900667429
v -4.295361996 0.6274703741 -7.554746628
vn 0.001702625072 0.01880033314 -0.9998217821
v -4.708127499 0.90081954 -7.532369137
vn 0.06420981139 0.7105549574 -0.7007058859
v -4.219928265 0.8819960356 7.41169548
vn 0.08655235171 0.9962462783 0.001412034384
v -4.314856052 0.8508290052 -7.543107033
vn 0.07218718529 0.7063671947 -0.7041550875
v -4.233489513 0.8705103993 7.540525913
vn 0.08515489846 0.7719427943 0.6299626827
v -4.206367016 0.8659220338 -7.430911541
vn 0.08640769869 0.9962139726 -0.009562153369
v -3.98938942 0.829228282 7.547203064
vn 0.04138311744 0.3741908371 0.9264279008
v -3.772412539 0.8432103395 7.418476105
vn 0.08612512052 0.9962815046 0.002383414889
v -3.772412062 0.8190885186 7.546681881
vn 0.01541374531 0.2824780047 0.9591499567
v -3.457328796 0.789511323 -7.539103508
vn 0.05152108148 0.6464040875 -0.7612537742
v -3.268988848 0.7995579243 7.404915333
vn 0.0863680169 0.996263206 0.0004579513916
v -3.243529558 0.6995136142 -7.554746628
vn 0.00457878923 0.0502833873 -0.9987245202
v -3.107918978 0.6995136142 7.554747105
vn 0.00287535158 0.04714561999 0.998883903
v -3.31133914 0.7916718125 7.539190769
vn 0.05960161611 0.7663244605 0.6396830678
v -2.904503107 0.7568741441 7.54052639
vn 0.09338244051 0.9165167212 0.3889432251
v -2.877380848 0.7656116486 7.404915333
vn 0.08658530563 0.9962435961 0.001311167143
v -1.811140537 0.4350724518 -7.554748058
vn 0.001255999086 0.01255725231 -0.9999203682
v -2.240857363 0.5147438645 7.554747105
vn 0.001112588914 0.02600608952 0.9996611476
v -2.358879089 0.7042607069 7.542733669
vn 0.04507915676 0.5880653262 0.8075562119
v -2.143759727 0.6871607304 -7.397008896
vn 0.08617542684 0.9962597489 -0.006351094227
v -1.792494297 0.658880949 7.540525913
vn 0.06977199763 0.7847640514 0.615854919
v -1.955227256 0.6594901085 -7.539400578
vn 0.08622159064 0.889310658 -0.4491017163
v -1.71112752 0.6496243477 -7.430911541
vn 0.08703331649 0.9961565733 -0.00986217428
v -1.650102615 0.611786902 -7.546418667
vn 0.05080812424 0.5104903579 -0.8583810925
v -1.385661483 0.621411562 -7.430911541
vn 0.08585231006 0.9962595701 -0.009812919423
v -1.128000855 0.428291887 7.554748058
vn 0.001427241368 0.029184971 0.9995729923
v -0.8179187775 0.5722313523 -7.397008896
vn 0.08637525141 0.9962491989 -0.005176041741
v -1.016369462 0.5780855417 -7.539111137
vn 0.04730233178 0.6302492619 -0.7749505639
v -0.9088702798 0.5949730277 7.404915333
vn 0.0863602981 0.9962639809 5.482285997e-05
v -0.5109715462 0.374047637 -7.554746628
vn 0.003148358548 0.02165460959 -0.9997605681
v -0.077015616 -0.03615862876 3.055696487
vn 0.0005214077537 -0.9999998212 -0.0001973089238
v -0.4228245318 0.3740475476 7.554746628
vn 0.001589278574 0.00703810947 0.9999739528
v -0.2827639282 0.53216362 -1.099050522
vn 0.08682592213 0.9962229729 -0.001000327058
v -0.3414580226 0.53089571 -7.430911541
vn 0.08701436222 0.9962043166 -0.002337709069
v 0.112838313 0.2655588984 7.554328442
vn -0.0003431493242 0.7349037528 0.6781713367
v -0.3007747531 0.5204595327 7.543654442
vn 0.04726286978 0.5153515935 0.8556745648
v 0.0653745234 0.2102020979 7.649014473
vn -0.0005374618922 0.7784662843 0.6276862025
v 0.1247042492 0.3740476072 7.553876877
vn -0.002061377745 0.02622112073 0.9996540546
v -0.03124821 0.5168706775 5.389398575
vn 0.08160306513 0.9966624379 -0.002220581984
v -0.03124821 0.5112999082 1.096467853
vn 0.05225860327 0.9986328483 -0.001236313488
v -0.02955307439 0.5004086494 -7.430911541
vn -0.03342342377 0.9994266629 -0.005405157804
v 0.02469125949 0.4899158776 -7.543851376
vn -0.009464022703 0.7160203457 -0.698015213
v 0.1603021026 0.5293120742 6.349693298
vn -0.08736936003 0.996175468 -0.00101743429
v 0.1348750591 0.5233144164 2.622089863
vn -0.08713009953 0.9961964488 -0.001006163307
v 0.4179626703 0.5383451581 -7.417350769
vn -0.0881940797 0.9961001277 -0.002516511129
v 1.294034958 -0.033886116 -1.13491118
vn 0.001958638662 -0.9999980927 8.169466128e-06
v 0.4586460292 0.5207828283 -7.542794228
vn -0.04666386172 0.5150975585 -0.8558604121
v 0.5535736084 0.3740476072 -7.554746628
vn -0.004092097748 0.02691809833 -0.9996292591
v 0.7841119766 0.2655588984 -7.554748535
vn -0.0002363132953 0.3985218406 -0.9171587825
v 1.001089334 0.2655588984 7.554922104
vn -0.0003878212592 0.3540070951 0.9352426529
v 1.237054944 0.6110050678 -7.410570145
vn -0.0882782042 0.9960913658 -0.002995719202
v 0.9583235979 0.575493753 -7.538027287
vn -0.06559103727 0.7807523012 -0.621388495
v 1.958840966 0.2655589581 -7.555046082
vn -0.0001803639752 0.1908978075 -0.9816098809
v 6.017207623 0.2655589581 7.556440353
vn -0.000264530594 0.2202728838 0.9754382372
v 1.43504405 0.6109626889 7.54735899
vn -0.05044531822 0.4868678451 0.8720177412
v 0.3111691475 -0.03519318998 7.649014473
vn 0.001383355353 -0.9991000891 0.04239188507
v 1.884796739 0.683306098 7.377792835
vn -0.08827205002 0.9960895181 0.003698847955
v 1.760510087 0.6574148536 -7.430911541
vn -0.08828408271 0.9960870743 -0.00405151071
v 2.153781652 0.6832714677 -7.53244257
vn -0.06845613569 0.6960470676 -0.7147253156
v 2.180903912 0.5910249352 -7.554747105
vn -0.008620134555 0.09536980838 -0.9954046011
v 2.869552374 0.5151676536 -7.554747105
vn -0.000842603622 0.02334918082 -0.9997270107
v 2.246043444 0.6987484097 7.542878151
vn -0.05887715146 0.7264553905 0.68468678
v 2.628419399 0.7177994251 7.547636986
vn -0.05008804798 0.4477342367 0.8927627206
v 2.872519016 0.7560495734 -7.430911541
vn -0.08832427114 0.9960847497 -0.003747447394
v 2.466957808 0.5427135825 7.554747105
vn -0.001158531406 0.01341028791 0.9999094009
v 2.953885555 0.6995136142 7.554747105
vn -0.003741650376 0.07861477137 0.9968980551
v 3.170862436 0.6995136142 -7.554746628
vn 0.0009935973212 0.05009970441 -0.9987437129
v 3.415971994 0.8042808175 -7.403789997
vn -0.08844249696 0.996076405 -0.003121301765
v 3.725172281 0.4554140568 7.554748058
vn -0.0009824525332 0.005562471692 0.999984026
v 3.5370121 0.6588303447 7.554748058
vn 0.001038793591 0.02950458042 0.9995641112
v 3.848917246 0.8575771451 7.432036877
vn -0.08891153336 0.9960209131 0.006088989787
v 6.067426205 -0.02437048405 7.649014473
vn 0.001932942192 -0.9996778369 0.02530788258
v 3.998088837 0.8263614178 -7.546427727
vn -0.01781603135 0.170911029 -0.9851253629
v 4.147260666 0.8080022931 7.554653168
vn -0.005921536591 0.04033614323 0.9991686344
v 4.079455376 0.5283049345 -7.554747105
vn -0.001246386673 0.008864218369 -0.9999599457
v 4.452385902 0.2655588686 -7.555792809
vn -0.0003549534304 0.2224342674 -0.9749476314
v 4.472727299 0.9045661092 7.534518719
vn -0.07290662825 0.81238693 0.578543067
v 4.989462852 0.9438317418 -7.420741081
vn -0.08817252517 0.9960963726 -0.004200884141
v 4.646902084 0.748672545 7.554748058
vn -0.001093413914 0.01451357175 0.9998940825
v 4.812694073 0.9235764146 7.543682575
vn -0.06178470328 0.7375729084 0.6724349856
v 5.259270191 0.9582154155 7.543949604
vn -0.05029439926 0.5314759612 0.8455789685
v 5.232147694 0.9802418351 7.404915333
vn -0.0882601738 0.9960536361 0.009340255521
v 1.086217046 -0.03166365996 -7.647889137
vn 0.0006121995393 -0.9999043345 -0.01381827705
v 5.394880772 0.9423931837 -7.546977997
vn -0.06215011701 0.5381623507 -0.8405466676
v 5.503369808 0.9894047379 -7.430912495
vn -0.0886458829 0.9960547686 -0.004099117592
v 5.55761385 0.9824798107 -7.539400578
vn -0.09643092006 0.9080872536 -0.4075274169
v 5.882842064 1.012473583 -7.537731171
vn -0.06419370323 0.7601556182 -0.6465620995
v 5.888350964 1.021716833 7.542769909
vn -0.04151601717 0.5269340277 0.8488916159
v 6.490322113 0.92973423 -7.554747105
vn -0.001224411884 0.01714224368 -0.9998522997
v 3.926787376 0.2192784548 -7.647889137
vn -0.001204713713 0.8309437633 -0.5563551188
v 6.561132908 1.085759163 7.540525913
vn -0.08395045251 0.9041651487 0.4188528061
v 6.767437935 1.116394162 7.377791882
vn -0.08819121867 0.996096015 0.003876337782
v 6.879818916 1.024979711 7.554748058
vn 0.001849604421 0.03238994256 0.9994735718
v 7.142893314 1.132805228 7.543039799
vn -0.037465211 0.5207026601 0.8529156446
v 7.340897083 1.024979711 -7.554748058
vn 0.001317558577 0.03942387179 -0.9992216825
v 7.21206665 1.15585959 7.404914379
vn -0.08862581849 0.9960611463 0.002777466318
v 7.374799728 0.8622466326 -7.554747105
vn -8.008915984e-07 -5.202553552e-07 -1
v 9.251314163 0.2314898968 -7.647889137
vn -0.0009481796878 0.7253261209 -0.6884047389
v 7.700264931 1.153176904 -7.547030449
vn -0.01995735429 0.2155425847 -0.9762904644
v 9.424218178 0.1570702642 -7.68653059
vn -8.144743333e-05 0.2285164148 -0.9735400677
v 7.944364548 1.194438815 -7.539400578
vn -0.07833772898 0.7713605165 -0.6315585375
v 8.195244789 1.123297453 -7.554747105
vn -0.004904159345 0.03403742239 -0.9994085431
v 6.969119072 0.6236430407 7.554746628
vn -0.0005305845989 0.007886138745 0.9999687672
v 8.758029938 1.293013096 7.432036877
vn -0.0884847492 0.9960604906 0.00582758477
v 8.703785896 1.273280144 -7.430911541
vn -0.08819612861 0.996096611 -0.003605143167
v 8.920762062 0.4554140568 7.554748058
vn 3.182363434e-05 0.002429189626 0.9999970198
v 8.832615852 1.052101851 -7.554746628
vn -0.0007201083354 0.007118617184 -0.9999744296
v 9.376753807 0.2317407876 7.649014473
vn -0.001321475604 0.8727382421 0.4881866276
v 9.110617638 1.309393287 -7.403789997
vn -0.08850280941 0.9960699677 -0.003437581239
v 9.164862633 1.302217603 -7.539400578
vn -0.09285827726 0.920592308 -0.3793246448
v 9.500589371 1.344010711 -7.376666546
vn -0.08839941025 0.9960818887 -0.00252188067
v 10.15312576 0.2655588686 -7.557649136
vn -8.641172462e-05 0.2595326006 -0.9657343626
v 9.978527069 1.369967222 7.546893597
vn -0.06917401403 0.723084271 0.6872874498
v 10.17896461 1.41902566 7.408305168
vn -0.08867257833 0.9960422516 0.006086401641
v 10.15821171 1.180932164 -7.554746628
vn -0.001441333559 0.01504480373 -0.9998857975
v 9.85986805 1.197883487 7.554747105
vn -0.0009250005824 0.009829586372 0.9999512434
v 10.38535976 1.422475934 -7.390228271
vn -0.08843376487 0.9960723519 -0.004397863522
v 10.46672535 1.418138862 -7.539400578
vn -0.1009393111 0.9300628901 -0.3532622755
v 10.90068054 1.262298584 7.554748058
vn 0.01026704535 0.02437839657 0.9996500611
v 10.69726467 1.323323488 7.554747105
vn 0.002394502982 0.01548873447 0.9998771548
v 9.890379906 -0.01671484299 -7.647889137
vn 0.001775582437 -0.9997596145 -0.0218541678
v 10.87355804 1.480659485 7.432036877
vn -0.08797042817 0.9961128831 0.004515197128
v 11.03629208 1.495093942 7.4320364
vn -0.07973882556 0.996815443 -0.0007981591625
v 11.03629208 1.48869884 1.062141418
vn -0.0777072534 0.9969757199 -0.0009963130578
v 11.05753613 1.461718798 -7.541022778
vn 0.1037794948 0.3368965685 -0.9358047247
v 11.07697392 1.17415154 -7.554746628
vn 0.009690955281 0.01598340459 -0.9998252988
v 11.30751324 1.052101851 7.554747105
vn 0.06108711287 0.05364666879 0.9966897368
v 11.20143795 1.300056458 7.542872906
vn 0.3331774473 0.2839376926 0.8990951777
v 11.23970699 1.038540721 -7.554748058
vn 0.01985525154 0.01927780733 -0.9996169806
v 9.577571869 -0.01735006459 -3.451224327
vn 0.001954100328 -0.9999980927 -0.0002118491248
v 11.38687897 1.070763469 -7.539400578
vn 0.6144138575 0.478203088 -0.6275487542
v 11.36175728 0.9436131716 -7.554747105
vn 0.01871602423 0.01493479311 -0.9997133017
v 11.5787344 0.6452692747 7.554747105
vn 0.07023554295 0.08072800189 0.994258523
v 11.68722343 0.5910249352 7.554748058
vn 0.05937253684 0.06755807251 0.9959471822
v 11.53406048 0.8718534112 -7.542168617
vn 0.5379881859 0.4116314054 -0.7356142402
v 11.63297939 0.6181470752 -7.554748058
vn 0.02934924513 0.02339695208 -0.9992953539
v 11.84995651 0.2655589581 7.558345795
vn 0.002446425846 0.5413645506 0.8407844305
v 11.91549206 0.3815850914 7.543594837
vn 0.5126324296 0.4270900488 0.7448503375
v 11.84995651 0.2366873175 -7.647889137
vn -0.0003917039721 0.8330273032 -0.5532317162
v 12.12117958 0.04858157784 7.68653059
vn 0.00264221034 -0.2302116007 0.9731370211
v 12.01259804 0.2655195296 7.540471077
vn 0.5636717081 0.7889036536 0.2447555214
v 12.12117958 0.2372297347 7.377792835
vn 0.1677003056 0.9858377576 0.0007500228239
v 12.12117767 0.2372297347 -7.647889614
vn 0.003697190201 0.9680511951 -0.2507253289
v 12.12117863 0.1570701748 -7.68653059
vn 0.005341000389 0.1032846496 -0.9946374893
v 11.581213 -0.01334270369 0.8062486649
vn 0.002049967647 -0.9999979138 4.605358299e-06
v 12.22966671 -0.0116356248 6.752897263
vn 0.148572892 -0.9889014363 0.0001462621003
v 12.24548435 0.04858157784 7.66777277
vn 0.9093874097 -0.3441317976 0.2336405367
v 12.24541283 0.1570702642 7.66777277
vn 0.8812743425 0.1249850914 0.455778718
v 12.22966671 0.2374467254 7.486281395
vn 0.504627049 0.8633368611 0.0009831996867
v 12.26144218 0.1570702642 -1.717370152
vn 0.9859551787 0.1670099944 5.1041954e-10
v 12.22966671 0.2374467254 -7.647889137
vn 0.5094379783 0.8601979017 -0.02307538688
v 12.24560738 0.1028259248 -7.667162418
vn 0.7812610269 0.02186668664 -0.6238213181
v 12.26165676 0.04858157784 -7.539400578
vn 0.9824267626 -0.1866206825 -0.003230491187
v 12.26165771 0.04858167097 0.1602065712
vn 0.9833471775 -0.1817370951 -4.849066571e-08
v 12.01284313 0.2658546567 -7.53959322
vn 0.5751681924 0.7888918519 -0.2164052576
v 12.01905537 0.2733581066 -7.3766675
vn 0.7439023852 0.66828686 -0.001390451333
v 11.49462318 0.9491589665 2.666676521
vn 0.7901297808 0.6129395962 3.813051535e-06
v 11.84391308 0.4987784326 7.366775036
vn 0.7900151014 0.6130849719 0.001717605279
v 11.58150578 0.8114001155 7.544322968
vn 0.4026708007 0.3016808927 0.8642018437
v 11.57559204 0.8447577357 -7.357818604
vn 0.7901108861 0.6129623055 -0.001411202247
v 11.09926987 1.458934307 2.618222713
vn 0.7642090321 0.6449686289 -2.937981117e-05
v 11.09926987 1.458934307 6.537005901
vn 0.7621323466 0.6474213004 1.156969631e-07
v -10.98690987 1.457053065 7.538513184
vn 0.01571324095 0.8884147406 0.4587726891
v -10.51895523 1.428017497 7.412236214
vn 0.08642677963 0.9962552786 0.00242647063
v -10.95329857 1.460765243 2.522924423
vn 0.0811464563 0.9967015982 -0.00109852606
v -10.92094421 1.45728004 1.844870448
vn 0.08106487989 0.9967081547 -0.001149615389
v -10.97520828 1.459452033 -0.6774915457
vn 0.07520787418 0.9971674681 -0.0008925978909
v -10.98605251 1.45900619 -2.058262587
vn 0.08151727915 0.9966714382 -0.000986894127
v -10.98690796 1.453741908 -7.376666546
vn 0.08070320636 0.9967371225 -0.001466598012
v -10.98690891 1.441784024 -7.539401054
vn 0.03417998552 0.8469065428 -0.5306420922
v -10.33078671 0.9580482841 -7.554747105
vn 0.0004156693758 0.003990465775 -0.9999919534
v -11.0953989 1.350445747 7.55416584
vn -0.0387548916 0.04842183739 0.9980748296
v -11.33949661 0.2102936357 7.649014473
vn 0.0004461070639 0.7952880859 0.6062315106
v -10.51905155 0.2655589581 7.554747105
vn -6.074840257e-06 0.1531067491 0.9882096648
v -11.30580235 1.149158597 -7.540365219
vn -0.771520555 0.6051326394 -0.1963936239
v -11.41408348 0.428291887 7.554748058
vn -6.531793701e-07 8.880085807e-05 1
v -11.48331547 0.9413724542 -6.868589878
vn -0.7912775874 0.6114556789 -0.001306180493
v -9.15362072 0.2655589581 -7.554748058
vn 4.131165383e-07 0.1739738435 -0.9847502708
v -11.78341484 0.5322902799 7.540422916
vn -0.7527490258 0.5744870901 0.3214552701
v -11.49495697 0.7356809378 7.554705143
vn -0.01048839372 0.007169002201 0.9999192953
v -11.74633026 0.2106162757 -7.647889137
vn 0.0007790886448 0.7959255576 -0.6053940058
v -11.80057335 0.2655589581 -7.554747105
vn -0.001360553899 0.2828054428 -0.959176302
v -11.46588898 0.9639353156 1.488813877
vn -0.7895951867 0.6136280894 -6.709363515e-05
v -11.84625721 0.471451968 4.777454853
vn -0.7913855314 0.6113173962 3.698377895e-06
v -12.07179642 0.2144703567 7.540525913
vn -0.2512951493 0.961293757 0.1129826158
v -11.96330833 0.2102935463 7.649015427
vn -0.04520001635 0.7974326611 0.6017126441
v -1.640752792 0.04858167097 -7.686525822
vn 3.298590201e-08 -0.1565832049 -0.9876647592
v -11.0106411 0.1570702642 -7.68653059
vn 2.102752035e-07 0.1915609092 -0.9814807177
v -12.00534916 0.2655588686 -7.3766675
vn -0.7768935561 0.6296278238 -0.002286851639
v -12.07179642 0.2156613171 -4.743029118
vn -0.2659492195 0.9639870524 -3.042336539e-05
v -12.00534821 0.2655588984 1.053241968
vn -0.7771193981 0.6293532252 -1.065904144e-05
v -12.00387192 0.2674670517 4.401558399
vn -0.759411335 0.6506108642 3.96776295e-06
v -12.25989437 0.1570701748 7.649014473
vn -0.9024509788 0.4301017821 0.02438548394
v -12.18028641 0.1570702195 7.68653059
vn -0.003778916784 0.2276022285 0.9737468362
v -12.18028545 -0.0361074768 7.649014473
vn -0.02668127231 -0.999576807 0.01158955041
v -12.26029015 0.04858167097 7.174376965
vn -0.9615320563 -0.2746927738 7.440352783e-05
v -12.18028355 -0.03650400788 -7.647889137
vn -0.01241278648 -0.9998764396 -0.009647794999
v -12.26029015 0.04858157784 -7.647889137
vn -0.9332235456 -0.3592265546 -0.00707422616
v -12.26029015 0.1570702195 -7.647889137
vn -0.896481216 0.4342132211 -0.0882063061
v -12.1802845 0.2106136233 -7.647889137
vn -0.3933618367 0.9186630249 -0.03639696911
v -12.18028355 0.2129879892 5.116667271
vn -0.3692935705 0.9293127656 1.594198182e-19
v -12.26029015 0.1570702642 3.223439217
vn -0.9166845083 0.3996116519 2.010029857e-05
v -11.59984016 0.7905020714 5.797132015
vn -0.7904039621 0.6125859618 -1.935652108e-05
v -11.91320324 0.3847750723 -0.5791736245
vn -0.7913910151 0.6113103032 -7.977162682e-07
v -11.49103928 0.93137151 -2.227471113
vn -0.7902577519 0.6127745509 0.0001675663661
v -11.42447948 1.017550588 7.38504982
vn -0.7902086377 0.6127567887 0.009968002327
v -11.095397 1.443145275 -4.607663631
vn -0.7530530691 0.6579596996 0.0002661266772
v -11.08817291 1.447102427 -2.094624996
vn -0.6579738855 0.7530403733 0.0007409991813
v -11.08628273 1.451046705 6.279345036
vn -0.7540128827 0.6568595767 -0.0001462714717
v -11.08662224 1.451046705 7.432036877
vn -0.7148966789 0.6990526915 0.01574888267
v -9.664704323 1.241957068 -7.554698467
vn 0.003171490273 0.03910908848 -0.999229908
v -10.05134296 1.372588634 -7.430911541
vn 0.08603269607 0.996240437 -0.01016783156
v -10.3630991 1.369375706 -7.546178341
vn 0.02473282069 0.2782611847 -0.9601869583
v -10.47158813 1.409017205 -7.430911541
vn 0.08684766293 0.9961835742 -0.008704406209
v -9.660914421 1.353615999 7.38457346
vn 0.08637372404 0.9962627292 0.0004484698584
v -9.62720108 1.339601994 7.539469242
vn 0.07028546184 0.821129024 0.5663983822
v -9.22396946 1.303054094 7.540525913
vn 0.07897195965 0.8577280045 0.5080020428
v -8.525149345 1.114821792 -7.554747105
vn 0.001079721958 0.02383839339 -0.9997152686
v -1.136476517 0.1570702642 -7.68652916
vn -0.0001459252671 0.255594492 -0.96678406
v -8.396059036 1.243979931 7.391353607
vn 0.08646372706 0.9962540865 0.001363800722
v -8.003471375 1.209962368 7.404915333
vn 0.08625461161 0.9962725043 0.001126379706
v -7.583076954 1.173548102 7.432036877
vn 0.08621637523 0.9962733984 0.002460029675
v -7.365757465 1.139738441 -7.431030273
vn 0.08607584238 0.9962280989 -0.01098038722
v -7.078377724 1.118383169 7.539830208
vn 0.07789200544 0.8776359558 0.4729566574
v -6.728729248 1.024979711 7.554747105
vn 0.01446072944 0.0528138876 0.9984996915
v -6.593118191 1.063260794 7.544081688
vn 0.06447451562 0.5523411036 0.8311211467
v -5.866169453 0.8717287779 -7.554743767
vn 0.001218200079 0.01263945177 -0.9999193549
v -5.873207569 1.025288701 7.391353607
vn 0.0863161087 0.9962670207 0.001256704796
v -5.657402992 0.9029299021 7.554746628
vn 0.002233137377 0.06323198229 0.9979963303
v -3.76393652 0.2655589581 -7.554746628
vn 7.346136499e-07 0.3654593825 -0.93082726
v -5.345498085 0.9420272708 7.547586441
vn 0.0535556674 0.3835685253 0.9219582081
v -5.074276447 0.9300709367 7.545877934
vn 0.02749301493 0.4444735348 0.8953700066
v -4.634707928 0.9064441919 7.539814949
vn 0.0718960315 0.8868104219 0.4565066099
v -6.902480125 0.2106162757 -7.647889137
vn 1.34342838e-06 0.7562682629 -0.6542616487
v -4.030073166 0.8238715529 -7.546090603
vn 0.04795056581 0.5772718191 -0.8151429296
v -3.828969955 0.8332144618 -7.424131393
vn 0.08605309576 0.9962617159 -0.00758260861
v -4.549613953 -0.03650410101 6.919769287
vn 1.452998094e-05 -1 9.271250747e-05
v -3.446946383 0.6452692747 7.554747105
vn -0.001315831905 0.03566281125 0.9993630052
v -3.040113449 0.7417711616 -7.543236732
vn 0.05195393413 0.4476146996 -0.8927159905
v -2.592693567 0.7070567012 -7.543690205
vn 0.03514631838 0.4890843332 -0.871528089
v -2.687525511 0.7177268267 7.547636032
vn 0.04506967962 0.4619942605 0.8857370019
v -2.009471416 0.2655589581 -7.554747105
vn 0.0001205953013 0.3836918771 -0.9234611988
v -1.833177328 0.5910249352 7.554747105
vn 0.001539311255 0.06282024086 0.9980236888
v -1.602638841 0.428291887 7.554747105
vn 0.001973644597 0.00855616387 0.9999614358
v -1.277172804 0.6033112407 7.54567337
vn 0.04154696688 0.5784164071 0.8146829605
v -0.8160958886 0.4825362265 -7.554731369
vn 0.002665864537 0.0873708874 -0.9961723089
v -0.4571707845 0.5499802232 1.589169502
vn 0.0865482837 0.9962471724 -0.001006827573
v -0.5719964504 0.4825362265 7.554698944
vn 0.003900594776 0.08492125571 0.9963800311
v -0.3821412623 0.502839148 -7.546288013
vn 0.04390936717 0.4959793091 -0.8672234416
v -0.2329693288 0.5242053866 -4.727170467
vn 0.08703211695 0.9962049723 -0.00100777857
v 0.05181343853 0.4957448542 7.545267105
vn -0.009117582813 0.832839787 0.5534390807
v -0.02955307439 0.5061073899 -2.440432549
vn -0.008647643961 0.9999620318 -0.001091967802
v 0.02469126135 0.374047637 -7.553848267
vn -0.0006988722598 0.05364812538 -0.9985596538
v 0.2543821335 0.528973639 -2.299524307
vn -0.08797480166 0.9961221814 -0.0009952457622
v 0.3501572907 0.5228521824 7.54392004
vn -0.07071387768 0.6842758656 0.7257865667
v 0.5671346188 0.4825362265 7.554745197
vn -0.005218448583 0.07799674571 0.9969399571
v 1.258749962 0.4452432394 7.554748058
vn -0.001285137259 0.01188723464 0.999928534
v 1.380799651 0.6386562586 7.432036877
vn -0.08835114539 0.9960705042 0.006133563351
v 1.394360781 0.6021965146 -7.54454422
vn -0.05586046353 0.6223580241 -0.7807368636
v 1.760510087 0.5910249352 7.554747105
vn -0.004310727119 0.07009224594 0.9975311756
v 1.760510087 0.6331340075 -7.543236732
vn -0.07177628577 0.8277890086 -0.5564292073
v 4.69258976 -0.02712018974 4.453872681
vn 0.001964850817 -0.9999980927 1.977054853e-05
v 2.547053099 0.7421023846 7.432036877
vn -0.08849912882 0.9960632324 0.00509652961
v 7.298942089 0.04858157784 -7.68653059
vn 0.0001237299439 -0.1871416718 -0.9823329449
v 3.237423182 0.7921481133 7.539216042
vn -0.04630675167 0.6797599792 0.7319713831
v 3.484884024 0.7982864976 -7.539933205
vn -0.06056314707 0.7247815728 -0.6863117218
v 3.22376442 0.8020753264 7.381183624
vn -0.08800260723 0.9961058497 0.005359620787
v 3.869258881 0.827839613 7.546943188
vn -0.05145864934 0.5286651254 0.847269237
v 4.174382687 0.873660326 7.540525913
vn -0.06842837483 0.8055647016 0.5885431767
v 4.282871723 0.8692378998 -7.539400578
vn -0.08603172004 0.8980472684 -0.4314042628
v 4.684937 0.9059686661 -7.538484097
vn -0.06039427593 0.769759357 -0.6354707479
v 4.798193455 0.9417639375 7.418476105
vn -0.08808670193 0.9961067438 0.00346898078
v 5.151205063 0.6757817268 -7.554746628
vn -0.0008132915245 0.00642829854 -0.9999790192
v 5.668162823 1.01888895 7.377792835
vn -0.08840315044 0.9960811734 0.002682638587
v 5.666102409 0.916490972 -7.554747105
vn -0.006614586804 0.06848934293 -0.9976299405
v 6.208545208 1.06686151 7.418476105
vn -0.08847992867 0.9960571527 0.006438859273
v 6.317034245 1.044396162 7.547432899
vn -0.02808783762 0.1925056875 0.9808937907
v 6.642499924 1.090445042 -7.430911541
vn -0.08818163723 0.9960955977 -0.004184117541
v 7.062522411 1.127730966 -7.385901928
vn -0.08842276782 0.9960774779 -0.003322590142
v 7.582479477 0.653082788 -7.554748058
vn -9.776133811e-05 0.003509846982 -0.9999938607
v 7.646021366 1.171924472 7.544081211
vn -0.03936563805 0.3679701388 0.9290039539
v 8.054548264 1.116516948 7.554747105
vn -0.003867445746 0.02698927745 0.9996282458
v 8.147212982 1.227557421 7.538850307
vn -0.07331379503 0.8333959579 0.5477921963
v 9.082224846 0.9224239588 7.554747105
vn -0.0003054175177 0.002966146916 0.9999955297
v 8.94788456 1.285276532 7.543903351
vn -0.0686449632 0.6467354894 0.7596189976
v 9.05637455 1.241957068 7.554664135
vn -0.008204288781 0.03837111965 0.9992298484
v 9.368278503 1.241957068 -7.554618835
vn -0.00233297958 0.02713559754 -0.9996290207
v 9.569791794 1.339400053 -7.538407326
vn -0.07921144366 0.9146057367 -0.3965122104
v 10.00564957 1.388754964 -7.430911541
vn -0.08815258741 0.9961000085 -0.0037243322
v 10.33111477 1.350445747 7.554746628
vn -0.001881989185 0.0210867133 0.9997758865
v 10.27687073 1.37604332 -7.547073364
vn -0.05867220089 0.4708823562 -0.8802428246
v 10.80458164 1.459136009 7.542123318
vn -0.04853989556 0.6945974827 0.7177591324
v 10.84728432 1.452680826 -7.53730917
vn -0.07243459672 0.9193131924 -0.386802882
v 11.03629112 1.481217265 -6.390098095
vn -0.08111636341 0.9967041612 -0.001000643824
v 10.48028755 -0.01553053875 7.649014473
vn 0.002043387387 -0.9998627305 0.01644108817
v 11.23632908 1.282207608 7.404914379
vn 0.7900792956 0.6129748225 0.006049454212
v 11.30522633 0.5668377876 7.554746628
vn 0.0004767118371 0.001511286828 0.9999987483
v 11.44312382 0.7537579536 -7.554746628
vn 0.01115107536 0.009294833057 -0.999894619
v 11.68350792 0.6937665939 7.517718315
vn 0.752045691 0.5773254037 0.317997843
v 11.74146843 0.4011697769 -7.554747105
vn 0.005780858919 0.01152693667 -0.9999168515
v 11.91596317 0.3819147646 -7.542695999
vn 0.5191267133 0.4263900518 -0.740742147
v 12.12117863 0.1570702642 7.68653059
vn 0.0008810579311 0.1402669996 0.990113318
v 12.12117958 0.2372297347 -0.3232083619
vn 0.1680824161 0.9857729673 0
v 12.12117863 0.04858157784 -7.68653059
vn 0.005326509476 -0.2676149905 -0.9635112286
v 12.26165771 0.04858157784 7.459158897
vn 0.9817115664 -0.1903439611 0.003401930211
v 12.22966766 0.2374467254 7.649013519
vn 0.1853318959 0.9372438192 0.2953406572
v 12.26144218 0.1570702195 -7.485156059
vn 0.9866309166 0.1629603356 -0.0018298137
v 12.22966766 -0.01153386477 -7.647889137
vn 0.0439726375 -0.9817245603 -0.1851575226
v 12.22966671 -0.0116356248 -4.512311935
vn 0.04867959023 -0.9988144636 1.4164807e-05
v 12.01905441 0.2733578384 -0.6105338931
vn 0.7436203361 0.668602109 4.648052254e-06
v 11.79720688 0.5238004327 7.543791771
vn 0.6373765469 0.4861519337 0.5978356004
v 11.40172672 1.046144128 7.541307926
vn 0.7023470402 0.5405259132 0.4631850123
v 11.09926987 1.458934307 7.4320364
vn 0.727740109 0.6858459711 0.003101323033
v -10.98690987 1.468551993 7.377792835
vn 0.08043152094 0.9967600107 -0.0005212282995
v -10.92220116 1.456953406 1.410915494
vn 0.08132658899 0.996686995 -0.0009857174009
v -10.98690891 1.456229568 -4.898379326
vn 0.07684099674 0.9970428944 -0.000991866691
v -10.64788246 1.412683129 -7.539400578
vn 0.08638259023 0.9035116434 -0.4197675586
v -11.0953989 1.350445747 -7.554190636
vn -0.04747563973 0.06237168238 -0.9969232082
v -11.27400017 1.188830972 7.541534424
vn -0.6826020479 0.5154856443 0.5180048347
v -11.52924633 0.8488237858 7.543676376
vn -0.651106596 0.5042381287 0.5672777891
v -11.60255623 0.7869862318 -7.430911541
vn -0.7842481732 0.6195416451 -0.03351029009
v -11.63784122 0.2655589581 7.554746628
vn -0.007177783642 0.2619352043 0.965058744
v -11.55647469 0.5181341171 -7.554748058
vn -0.004382478073 0.003644785145 -0.9999837279
v -12.00534821 0.2655588984 7.432036877
vn -0.753549993 0.6573560238 0.006743020844
v -12.07179642 0.2102921754 7.649014473
vn -0.00175079715 0.634919405 0.7725763917
v -12.07179642 0.2106136233 -7.647889137
vn -0.07524800301 0.7746379375 -0.6279122233
v -12.00534916 0.2655589581 -5.527486324
vn -0.7790268064 0.6269906759 -3.398959961e-06
v -12.07179642 0.215661183 7.377792835
vn -0.3283103704 0.9445697069 0.000600098283
v -12.18028355 0.04858157784 7.686530113
vn -0.00281610596 -0.1575034261 0.9875144362
v -12.26029015 0.04858167097 2.143002033
vn -0.9291653633 -0.3696644008 -9.630766407e-09
v -12.1802845 0.04858157784 -7.68653059
vn -0.003380866488 -0.2717052102 -0.962374568
v -12.18028355 0.2129879892 -6.868126392
vn -0.2696187794 0.9629670978 -0.0001813429262
v -12.18028355 0.2129879892 7.296426773
vn -0.1931879073 0.981161654 0.0005017302465
v -11.87029266 0.4403332174 -7.403789997
vn -0.792817831 0.6089338064 -0.02528849803
v -11.09539604 1.44295454 -7.430911541
vn -0.7288177013 0.6843562126 -0.02193983458
v -11.08270073 1.451046467 -0.5554417968
vn -0.743385911 0.6688627601 -8.566110046e-05
v -11.09539604 1.425086141 7.540525913
vn -0.5940636992 0.641322732 0.4855857491
v -10.76993179 1.350445747 7.554746628
vn 0.002422545804 0.01943636686 0.9998081326
v -10.49870968 1.413375378 7.540525913
vn 0.1014862657 0.7877815366 0.6075366139
v -9.031093597 0.2102936357 7.649014473
vn 1.136657374e-05 0.8084314466 0.5885903835
v -8.663196564 0.6484476924 -7.554746628
vn -2.085077284e-07 7.014440939e-07 -1
v -9.590118408 1.33265543 -7.383448124
vn 0.08629264683 0.9962511659 -0.006098599639
v -9.196846962 1.298517346 -7.430911541
vn 0.0872137621 0.9961459637 -0.009323803708
v -8.979868889 1.262696743 7.547032356
vn 0.05889165774 0.654407382 0.7538452744
v -8.655706406 1.247943997 7.543972969
vn 0.0535716936 0.6415316463 0.7652236819
v -8.301814079 1.226519823 7.532965183
vn 0.07372440398 0.782019794 0.6188778281
v -8.111960411 1.193156958 -7.539400578
vn 0.07857915014 0.7337450981 -0.6748654842
v -7.86785984 1.15260756 -7.547031879
vn 0.03741251305 0.4392147958 -0.8976027369
v -7.33920002 1.123375773 -7.541369915
vn 0.06102477759 0.7307732701 -0.6798870564
v -7.070218086 1.129050612 7.391353607
vn 0.08639023453 0.9962613583 1.196445919e-05
v -6.674484253 1.094760418 7.404915333
vn 0.08641125262 0.9962559938 0.002653259085
v -6.324699402 1.049547791 -7.430911541
vn 0.08610804379 0.9962487817 -0.008587869816
v -6.203483582 1.033191323 7.543954372
vn 0.02461031079 0.3517020047 0.9357884526
v -5.833697319 1.007040143 -7.376666546
vn 0.08635958284 0.9962564111 -0.003893167712
v -5.508231163 0.9787729979 -7.430911541
vn 0.08644081652 0.9962006807 -0.01059080753
v -5.508231163 0.9805409312 7.540525913
vn 0.09992784262 0.909358561 0.4038333595
v -4.899954796 0.9409503341 7.418476105
vn 0.08622518927 0.9962749481 0.001222512801
v -4.857299805 0.8080022931 -7.554747105
vn -0.0001872717257 0.0536845848 -0.9985579252
v -4.504711151 0.8080022931 -7.554699898
vn 0.01332808193 0.1015598997 -0.9947401285
v -4.545393944 0.8012217879 7.554668903
vn 0.003073655302 0.03329815716 0.9994407296
v -3.424062014 0.4757556915 -7.554748058
vn 0.001124745701 0.01234570891 -0.9999231696
v -4.156360626 0.4825362265 7.554748058
vn 0.0008899107925 0.006885746494 0.9999759197
v -3.492714882 0.4537189603 7.554747105
vn 5.312800795e-07 -2.111838967e-06 1
v -2.890941858 0.7518989444 -7.427521706
vn 0.08655510843 0.9962149262 -0.00800278876
v -2.863819599 0.5096583962 7.554747105
vn 0.002203709213 0.01033937372 0.9999440908
v -2.131521225 0.5893298388 -7.554748058
vn 0.002676495584 0.0591163449 -0.9982475042
v -2.315336943 0.7168982029 7.41169548
vn 0.086187765 0.9962773919 0.00173458783
v -2.253570795 0.6874091625 -7.534953117
vn 0.06695651263 0.8502351642 -0.5221273899
v -1.548394561 0.6504232883 7.418476105
vn 0.08635848761 0.9962621331 0.001990874764
v -1.494150162 0.6120450497 7.547471046
vn 0.03700596839 0.330508709 0.943077147
v -0.3448483348 0.2655589581 -7.554300308
vn -0.0006406888715 0.5553597212 -0.8316099644
v -0.816752553 0.5751045346 7.539152622
vn 0.06884134561 0.8240711093 0.5622879267
v -0.6262407899 0.5436433554 -7.539400578
vn 0.08708905429 0.9053259492 -0.4156927466
v -0.2736525834 0.5399233699 7.418475628
vn 0.07898918539 0.9968542457 0.006507582963
v -0.8042299747 0.2105861306 -7.647889137
vn -0.0005066327867 0.7902007699 -0.6128478646
v 0.01494422834 -0.036133416 7.282229424
vn 0.001047785161 -0.9999994636 0.0001216340897
v 0.02469126694 0.5209795237 7.432036877
vn 0.07826308161 0.996932745 -0.0001084675459
v -0.02955307439 0.5020118952 -5.928173542
vn 0.02440452389 0.9997014403 -0.001222361811
v 0.414657563 0.5529360771 7.408304691
vn -0.08818402886 0.9961009026 0.002555021783
v 0.2372188866 0.524248004 -5.490193367
vn -0.08777471632 0.9961398244 -0.0009974332061
v 6.337930202 1.073888302 2.986494303
vn -0.0883526057 0.9960887432 -0.001000023098
v 0.7569898367 0.4689751565 -7.554668903
vn -0.001809720299 0.06467321515 -0.9979048371
v 0.8737277389 0.5782530904 7.54182148
vn -0.06392067671 0.746942997 0.6618083119
v 1.041772723 0.4011697769 -7.554747105
vn -0.002764520934 0.02977380343 -0.999552846
v 1.631679654 0.5096583962 -7.554746628
vn -0.003000569763 0.03257384151 -0.9994648099
v 12.12117958 0.2372297347 -7.458033562
vn 0.2214268744 0.9751768708 -0.0004289985227
v 12.06693459 0.2371212095 7.649014473
vn 0.004297648091 0.5726651549 0.8197780848
v 11.79295826 -0.012919222 -6.389039516
vn 0.00214890507 -0.9999976754 -2.332621807e-05
v 12.22966671 -0.01148736943 7.649014473
vn 0.006602273788 -0.9999377131 0.008999773301
v 12.26144218 0.1570701748 7.459159851
vn 0.985439837 0.1700220406 0.0009329814347
v 12.22966671 0.2374466807 -0.3903779984
vn 0.4953987598 0.8686656952 3.633570389e-10
v 12.22966671 -0.0116356248 -7.335984707
vn 0.1408115625 -0.9900363684 -0.0002179115691
v 12.22966671 -0.0116356248 -2.658257484
vn 0.09063116461 -0.9958845377 -1.936146076e-21
v 12.01905441 0.273357749 7.377792835
vn 0.6861619353 0.7274477482 0.001242981525
v 11.53832531 0.8928073645 7.377792835
vn 0.7901652455 0.6128825545 0.003721105866
v 11.09926987 1.458934307 -7.430911541
vn 0.7623685002 0.6471399069 -0.002062574029
v -10.79705429 1.440092206 7.540525913
vn 0.07086798549 0.8183906674 0.5702757835
v -10.98690796 1.466544986 5.378380299
vn 0.07718148082 0.9970165491 -0.001020976924
v -10.92345715 1.456626654 0.9769607186
vn 0.08150144666 0.9966728091 -0.0008762141224
v -10.79705429 1.43727088 -7.390228271
vn 0.0860549584 0.9962750077 -0.005533942953
v -10.78349304 1.350445628 -7.554748058
vn 0.005659992341 0.02857226692 -0.9995757341
v -11.09539795 1.426062107 -7.539399624
vn -0.7581034899 0.6418007016 -0.1156328321
v -11.24456882 1.031760216 -7.554747105
vn -0.01376984362 0.008863708936 -0.9998658895
v -11.54021168 0.8359524608 -7.542831898
vn -0.3379734755 0.2562819123 -0.9055901766
v -11.78473949 0.5319497585 -7.539421082
vn -0.6040515304 0.4746480882 -0.640180409
v -2.628447533 0.1570701748 7.68653059
vn -0.0001386699587 0.2503488958 0.9681556821
v -11.77345276 0.4418530166 -7.554575443
vn -0.06402789801 0.061113704 -0.9960750937
v -11.97031498 0.2736779451 7.546236038
vn -0.3275218308 0.559972465 0.7610257864
v 1.519006371 0.04858157784 7.68653059
vn 9.809611947e-05 -0.2091731578 0.9778786302
v -12.07179642 0.215098545 -7.458033562
vn -0.3345626295 0.9423703551 -0.002438286087
v -12.00534821 0.2655588686 -0.6961379647
vn -0.7779140472 0.6283707023 -1.810697086e-07
v -12.18028355 0.2102921307 7.649014473
vn -0.2697062194 0.9532001615 0.1366307735
v -12.25989437 0.04858148843 7.649014473
vn -0.7539717555 -0.6567052007 0.01627574489
v -12.1802845 -0.03650391847 0.3480653167
vn -0.01409689803 -0.9999006391 3.439603097e-05
v -12.18028545 0.1570702195 -7.68653059
vn -0.02913631685 0.2442177832 -0.9692825675
v -12.26029015 0.1570702642 -6.354845047
vn -0.8832176924 0.468963176 -4.71009007e-05
v -11.82349873 0.5009191036 7.316768169
vn -0.7914489508 0.6112123728 0.005287457258
v -11.97071648 0.2827007771 -7.542565346
vn -0.4895264506 0.7191035151 -0.4932078719
v -11.09539795 1.443017602 -7.010518074
vn -0.6631218195 0.7485114932 -0.0001635497028
v -11.08500004 1.451046586 2.980611324
vn -0.6297078729 0.7768318653 -0.0005447517033
v 11.79779339 0.5242114067 -7.542949677
vn 0.5778425336 0.4462604225 -0.683337152
v 11.82283401 0.2655588984 -7.558245659
vn 0.01160480268 0.4765334427 -0.8790797591
v 11.68374538 0.6889142394 -7.528481007
vn 0.7221618891 0.5488007069 -0.4210700393
v 11.71434593 0.428291887 7.554746628
vn 0.002723855432 0.0130527867 0.9999110699
v 11.41600227 0.8351244926 7.554747105
vn 0.03332737461 0.01083453186 0.9993857741
v 11.20180416 1.304337621 -7.5408144
vn 0.6326255798 0.5025244951 -0.5892826319
v 11.11765766 1.11990726 7.554748058
vn 0.007571729831 0.01465275045 0.9998639822
v 11.03629112 1.480226755 -7.3766675
vn 0.2159238756 0.9763823748 -0.00737496186
v 11.06044388 1.464898705 7.543364048
vn 0.2805640697 0.5631792545 0.7772470117
v 10.8043108 1.459650159 -7.3766675
vn -0.08834809065 0.9960877299 -0.001971449936
v 10.60233688 1.350445628 -7.554746628
vn 7.724767056e-05 0.02860267274 -0.9995908737
v 10.33111668 1.420147419 7.540525913
vn -0.09024171531 0.8626220822 0.4977344573
v 10.00565052 1.363880634 -7.545154572
vn -0.02932336926 0.5161041617 -0.8560237288
v 9.464688301 1.340690732 7.541825771
vn -0.04244362563 0.544095099 0.8379493356
v 10.54298019 0.707618475 -7.554748058
vn 3.826803368e-05 0.002929941285 -0.9999957085
v 9.462991714 1.355519772 7.419528008
vn -0.08813736588 0.9960817695 0.007273664232
v 8.920763969 1.261826634 -7.546420097
vn -0.05423264205 0.5399642587 -0.8399389386
v 8.595297813 1.254086852 7.546127796
vn -0.03059236147 0.4249474406 0.9047009349
v 8.53738308 1.241821647 -7.542598248
vn -0.05152519047 0.6639971733 -0.7459577322
v 8.106081009 1.235134482 7.381182671
vn -0.08831786364 0.9960747361 0.005918360315
v 7.510409832 1.182349801 7.432036877
vn -0.0880484134 0.9960983992 0.005951620638
v 7.819340229 1.194840431 -7.420741081
vn -0.08838098496 0.996078074 -0.004150874913
v 7.171592236 1.123209715 -7.541401386
vn -0.06721645594 0.7416812181 -0.6673761606
v 6.642501354 1.066692591 -7.543236732
vn -0.07013228536 0.7957335711 -0.6015725732
v 6.276351929 1.035845876 -7.54447794
vn -0.06193087623 0.7499040961 -0.6586413383
v 6.276350975 1.057967782 -7.430911541
vn -0.08828894794 0.99608922 -0.003371499246
v 5.652541161 0.9029299021 7.554748058
vn 0.001199986786 0.03838022426 0.9992625117
v 5.770403862 1.01314497 -7.3766675
vn -0.08836501092 0.9960851073 -0.002456487389
v 6.587408543 0.2655588686 -7.556463718
vn -0.0003592453431 0.1810416728 -0.9834753871
v 5.123658657 0.9303267598 -7.545309544
vn -0.0178167019 0.3576487005 -0.9336862564
v 4.594777107 0.428291887 -7.554746628
vn -0.0004576051724 0.003330483567 -0.9999943376
v 4.581215858 0.8012217879 -7.554687977
vn -0.004453109112 0.04687848687 -0.998890698
v 4.321899414 0.8994759917 7.377791882
vn -0.08841884136 0.996081233 0.00206489698
v 4.093016624 0.8643071651 -7.430911541
vn -0.08836445212 0.9960820079 -0.003511468647
v 4.143446922 0.2193894833 7.649014473
vn -0.001383184921 0.8382139206 0.5453398228
v 2.617879152 -0.03126968443 -6.058342457
vn 0.001802588347 -0.9999983311 -0.0002429681335
v 2.981007576 0.7424176931 -7.543236732
vn -0.06800965965 0.6893779635 -0.7212023139
v 2.845396519 0.7575892806 7.540525913
vn -0.08993948251 0.9420804381 0.3231026232
v 2.534259558 0.7070596218 -7.543649673
vn -0.04948459938 0.6194680929 -0.7834606171
v 2.140220642 0.428291887 7.554747105
vn -0.000242079419 0.003008229192 0.99999547
v 2.247822285 0.7006800771 -7.390228271
vn -0.0883975178 0.9960790277 -0.003532842034
v 1.679143786 0.6527427435 7.540525913
vn -0.08528465778 0.9271141887 0.3649463356
# mm_gid 0
g mmGroup0
f 378//378 379//379 437//437 
f 220//220 1//1 378//378 
f 204//204 437//437 379//379 
f 206//206 205//205 2//2 
f 355//355 206//206 2//2 
f 439//439 355//355 2//2 
f 207//207 439//439 2//2 
f 440//440 2//2 254//254 
f 357//357 440//440 254//254 
f 446//446 380//380 213//213 
f 214//214 213//213 380//380 
f 220//220 378//378 212//212 
f 212//212 378//378 203//203 
f 212//212 203//203 377//377 
f 250//250 377//377 203//203 
f 203//203 354//354 250//250 
f 354//354 249//249 250//250 
f 438//438 249//249 354//354 
f 438//438 460//460 249//249 
f 205//205 460//460 438//438 
f 206//206 460//460 205//205 
f 355//355 460//460 206//206 
f 439//439 460//460 355//355 
f 207//207 460//460 439//439 
f 207//207 376//376 460//460 
f 207//207 248//248 376//376 
f 208//208 248//248 207//207 
f 2//2 208//208 207//207 
f 248//248 208//208 356//356 
f 247//247 248//248 356//356 
f 459//459 247//247 356//356 
f 459//459 356//356 209//209 
f 375//375 459//459 209//209 
f 442//442 375//375 209//209 
f 442//442 209//209 210//210 
f 358//358 442//442 210//210 
f 358//358 210//210 441//441 
f 443//443 358//358 441//441 
f 363//363 443//443 211//211 
f 212//212 377//377 359//359 
f 250//250 246//246 359//359 
f 250//250 359//359 377//377 
f 249//249 246//246 250//250 
f 249//249 243//243 246//246 
f 249//249 223//223 243//243 
f 460//460 223//223 249//249 
f 376//376 223//223 460//460 
f 376//376 245//245 223//223 
f 248//248 245//245 376//376 
f 247//247 245//245 248//248 
f 247//247 217//217 245//245 
f 459//459 217//217 247//247 
f 375//375 217//217 459//459 
f 442//442 215//215 217//217 
f 442//442 217//217 375//375 
f 218//218 363//363 211//211 
f 362//362 213//213 214//214 
f 362//362 214//214 216//216 
f 444//444 215//215 443//443 
f 444//444 443//443 363//363 
f 220//220 359//359 360//360 
f 246//246 360//360 359//359 
f 246//246 243//243 457//457 
f 445//445 361//361 444//444 
f 222//222 363//363 218//218 
f 222//222 218//218 221//221 
f 374//374 217//217 361//361 
f 224//224 243//243 223//223 
f 219//219 246//246 457//457 
f 448//448 362//362 220//220 
f 448//448 220//220 219//219 
f 448//448 226//226 213//213 
f 448//448 213//213 362//362 
f 446//446 213//213 226//226 
f 458//458 222//222 221//221 
f 458//458 445//445 447//447 
f 458//458 447//447 222//222 
f 458//458 374//374 445//445 
f 368//368 225//225 448//448 
f 368//368 448//448 364//364 
f 457//457 232//232 364//364 
f 373//373 452//452 365//365 
f 373//373 365//365 225//225 
f 234//234 446//446 365//365 
f 234//234 365//365 452//452 
f 369//369 449//449 446//446 
f 369//369 446//446 234//234 
f 369//369 235//235 7//7 
f 369//369 7//7 449//449 
f 454//454 277//277 7//7 
f 454//454 7//7 235//235 
f 454//454 22//22 277//277 
f 237//237 123//123 22//22 
f 237//237 22//22 454//454 
f 371//371 227//227 123//123 
f 371//371 123//123 237//237 
f 371//371 455//455 228//228 
f 371//371 228//228 227//227 
f 455//455 240//240 366//366 
f 455//455 366//366 228//228 
f 240//240 372//372 450//450 
f 240//240 450//450 366//366 
f 458//458 229//229 374//374 
f 374//374 229//229 217//217 
f 372//372 230//230 450//450 
f 217//217 229//229 367//367 
f 372//372 241//241 230//230 
f 217//217 367//367 245//245 
f 245//245 367//367 451//451 
f 245//245 451//451 244//244 
f 244//244 451//451 223//223 
f 223//223 451//451 231//231 
f 223//223 231//231 232//232 
f 224//224 232//232 243//243 
f 241//241 373//373 230//230 
f 243//243 232//232 457//457 
f 373//373 368//368 230//230 
f 236//236 453//453 233//233 
f 236//236 233//233 242//242 
f 370//370 236//236 242//242 
f 370//370 242//242 456//456 
f 238//238 370//370 456//456 
f 238//238 456//456 239//239 
f 241//241 242//242 373//373 
f 241//241 456//456 242//242 
f 372//372 456//456 241//241 
f 240//240 239//239 456//456 
f 240//240 456//456 372//372 
f 455//455 239//239 240//240 
f 371//371 238//238 239//239 
f 371//371 239//239 455//455 
f 371//371 237//237 238//238 
f 237//237 454//454 370//370 
f 237//237 370//370 238//238 
f 454//454 236//236 370//370 
f 454//454 235//235 453//453 
f 454//454 453//453 236//236 
f 369//369 453//453 235//235 
f 369//369 234//234 233//233 
f 369//369 233//233 453//453 
f 234//234 452//452 233//233 
f 373//373 242//242 233//233 
f 373//373 233//233 452//452 
f 373//373 225//225 368//368 
f 368//368 364//364 232//232 
f 230//230 368//368 232//232 
f 230//230 232//232 231//231 
f 230//230 231//231 451//451 
f 230//230 451//451 367//367 
f 450//450 230//230 367//367 
f 450//450 367//367 229//229 
f 450//450 229//229 458//458 
f 366//366 450//450 458//458 
f 366//366 458//458 221//221 
f 228//228 366//366 221//221 
f 446//446 226//226 365//365 
f 225//225 365//365 226//226 
f 225//225 226//226 448//448 
f 457//457 364//364 448//448 
f 457//457 448//448 219//219 
f 223//223 232//232 224//224 
f 222//222 447//447 363//363 
f 362//362 216//216 220//220 
f 245//245 244//244 223//223 
f 445//445 374//374 361//361 
f 246//246 219//219 360//360 
f 219//219 220//220 360//360 
f 447//447 445//445 363//363 
f 445//445 444//444 363//363 
f 215//215 361//361 217//217 
f 444//444 361//361 215//215 
f 228//228 221//221 274//274 
f 218//218 274//274 221//221 
f 214//214 220//220 216//216 
f 358//358 215//215 442//442 
f 215//215 358//358 443//443 
f 359//359 220//220 212//212 
f 443//443 441//441 211//211 
f 441//441 210//210 357//357 
f 210//210 209//209 440//440 
f 210//210 440//440 357//357 
f 209//209 356//356 2//2 
f 209//209 2//2 440//440 
f 356//356 208//208 2//2 
f 205//205 438//438 2//2 
f 438//438 354//354 2//2 
f 354//354 204//204 2//2 
f 203//203 204//204 354//354 
f 203//203 437//437 204//204 
f 378//378 437//437 203//203 
f 1//1 4//4 378//378 
f 378//378 4//4 379//379 
f 204//204 379//379 4//4 
f 253//253 252//252 6//6 
f 251//251 253//253 6//6 
f 218//218 211//211 381//381 
f 6//6 252//252 382//382 
f 252//252 2//2 382//382 
f 6//6 382//382 9//9 
f 251//251 6//6 9//9 
f 255//255 257//257 11//11 
f 255//255 11//11 2//2 
f 382//382 2//2 383//383 
f 9//9 382//382 383//383 
f 9//9 383//383 12//12 
f 251//251 9//9 12//12 
f 211//211 251//251 12//12 
f 211//211 12//12 258//258 
f 8//8 384//384 257//257 
f 11//11 257//257 384//384 
f 383//383 2//2 13//13 
f 12//12 383//383 13//13 
f 12//12 13//13 14//14 
f 258//258 12//12 14//14 
f 381//381 211//211 258//258 
f 228//228 274//274 259//259 
f 227//227 228//228 259//259 
f 1//1 16//16 8//8 
f 8//8 385//385 384//384 
f 11//11 384//384 385//385 
f 8//8 16//16 385//385 
f 11//11 385//385 260//260 
f 2//2 11//11 260//260 
f 16//16 386//386 385//385 
f 385//385 386//386 260//260 
f 15//15 13//13 17//17 
f 13//13 2//2 17//17 
f 15//15 17//17 387//387 
f 258//258 15//15 387//387 
f 387//387 17//17 388//388 
f 258//258 387//387 388//388 
f 18//18 258//258 388//388 
f 381//381 18//18 19//19 
f 16//16 24//24 20//20 
f 262//262 20//20 24//24 
f 17//17 2//2 263//263 
f 388//388 17//17 263//263 
f 18//18 388//388 21//21 
f 10//10 25//25 16//16 
f 25//25 23//23 16//16 
f 16//16 23//23 24//24 
f 23//23 264//264 24//24 
f 262//262 24//24 264//264 
f 262//262 264//264 390//390 
f 2//2 262//262 390//390 
f 25//25 265//265 23//23 
f 23//23 265//265 264//264 
f 389//389 263//263 28//28 
f 21//21 389//389 28//28 
f 26//26 34//34 25//25 
f 265//265 266//266 264//264 
f 391//391 264//264 266//266 
f 28//28 27//27 29//29 
f 19//19 28//28 29//29 
f 25//25 393//393 266//266 
f 391//391 266//266 393//393 
f 391//391 393//393 30//30 
f 2//2 391//391 30//30 
f 29//29 392//392 31//31 
f 267//267 29//29 31//31 
f 218//218 19//19 267//267 
f 30//30 393//393 268//268 
f 2//2 30//30 268//268 
f 269//269 396//396 32//32 
f 268//268 32//32 396//396 
f 268//268 396//396 37//37 
f 2//2 268//268 37//37 
f 36//36 267//267 38//38 
f 270//270 36//36 38//38 
f 34//34 271//271 269//269 
f 269//269 271//271 396//396 
f 37//37 396//396 271//271 
f 35//35 395//395 40//40 
f 267//267 35//35 40//40 
f 267//267 40//40 38//38 
f 397//397 273//273 43//43 
f 2//2 397//397 43//43 
f 39//39 2//2 46//46 
f 44//44 39//39 46//46 
f 41//41 399//399 44//44 
f 402//402 47//47 400//400 
f 400//400 47//47 45//45 
f 43//43 45//45 47//47 
f 46//46 2//2 276//276 
f 275//275 46//46 276//276 
f 402//402 49//49 47//47 
f 48//48 47//47 49//49 
f 33//33 403//403 402//402 
f 402//402 403//403 278//278 
f 278//278 54//54 49//49 
f 48//48 49//49 54//54 
f 50//50 276//276 404//404 
f 278//278 403//403 53//53 
f 276//276 2//2 404//404 
f 50//50 404//404 279//279 
f 52//52 50//50 279//279 
f 33//33 405//405 403//403 
f 403//403 405//405 53//53 
f 53//53 55//55 54//54 
f 51//51 54//54 55//55 
f 51//51 55//55 56//56 
f 2//2 51//51 56//56 
f 401//401 52//52 279//279 
f 33//33 58//58 405//405 
f 405//405 281//281 53//53 
f 53//53 281//281 55//55 
f 56//56 55//55 281//281 
f 58//58 59//59 281//281 
f 407//407 281//281 59//59 
f 270//270 57//57 282//282 
f 270//270 282//282 415//415 
f 280//280 60//60 408//408 
f 406//406 280//280 408//408 
f 58//58 283//283 61//61 
f 58//58 61//61 59//59 
f 59//59 61//61 407//407 
f 408//408 60//60 62//62 
f 406//406 408//408 62//62 
f 33//33 284//284 58//58 
f 58//58 284//284 283//283 
f 33//33 66//66 284//284 
f 284//284 66//66 410//410 
f 282//282 57//57 411//411 
f 282//282 411//411 415//415 
f 64//64 65//65 68//68 
f 57//57 64//64 68//68 
f 22//22 71//71 277//277 
f 69//69 412//412 414//414 
f 2//2 69//69 414//414 
f 71//71 416//416 277//277 
f 33//33 380//380 75//75 
f 33//33 75//75 72//72 
f 2//2 73//73 290//290 
f 74//74 2//2 290//290 
f 75//75 78//78 72//72 
f 72//72 78//78 76//76 
f 289//289 74//74 82//82 
f 70//70 289//289 82//82 
f 70//70 82//82 293//293 
f 411//411 70//70 293//293 
f 79//79 417//417 83//83 
f 79//79 83//83 84//84 
f 80//80 79//79 84//84 
f 292//292 80//80 84//84 
f 292//292 84//84 294//294 
f 292//292 294//294 420//420 
f 418//418 292//292 420//420 
f 81//81 418//418 420//420 
f 81//81 420//420 85//85 
f 82//82 81//81 85//85 
f 78//78 295//295 291//291 
f 419//419 291//291 295//295 
f 83//83 419//419 421//421 
f 84//84 83//83 421//421 
f 294//294 84//84 421//421 
f 82//82 85//85 87//87 
f 293//293 82//82 87//87 
f 293//293 87//87 88//88 
f 411//411 293//293 88//88 
f 411//411 130//130 415//415 
f 259//259 415//415 130//130 
f 123//123 496//496 71//71 
f 446//446 495//495 77//77 
f 75//75 77//77 495//495 
f 296//296 423//423 295//295 
f 419//419 295//295 423//423 
f 88//88 87//87 422//422 
f 87//87 85//85 92//92 
f 422//422 87//87 92//92 
f 416//416 302//302 96//96 
f 90//90 297//297 78//78 
f 89//89 422//422 424//424 
f 422//422 92//92 424//424 
f 297//297 95//95 423//423 
f 298//298 423//423 95//95 
f 297//297 300//300 95//95 
f 95//95 300//300 502//502 
f 298//298 95//95 502//502 
f 93//93 425//425 101//101 
f 297//297 105//105 300//300 
f 300//300 105//105 102//102 
f 94//94 105//105 500//500 
f 102//102 303//303 97//97 
f 97//97 303//303 421//421 
f 100//100 499//499 101//101 
f 499//499 104//104 497//497 
f 101//101 499//499 497//497 
f 104//104 421//421 108//108 
f 497//497 104//104 108//108 
f 94//94 109//109 105//105 
f 110//110 308//308 305//305 
f 307//307 305//305 308//308 
f 307//307 308//308 111//111 
f 307//307 111//111 421//421 
f 108//108 421//421 494//494 
f 306//306 108//108 494//494 
f 306//306 494//494 113//113 
f 101//101 306//306 113//113 
f 93//93 101//101 115//115 
f 110//110 109//109 308//308 
f 93//93 115//115 116//116 
f 93//93 116//116 130//130 
f 109//109 119//119 114//114 
f 113//113 494//494 310//310 
f 113//113 310//310 492//492 
f 115//115 113//113 492//492 
f 86//86 185//185 302//302 
f 94//94 119//119 109//109 
f 119//119 117//117 309//309 
f 493//493 309//309 117//117 
f 494//494 421//421 118//118 
f 310//310 494//494 118//118 
f 119//119 120//120 117//117 
f 115//115 492//492 313//313 
f 491//491 115//115 313//313 
f 117//117 120//120 312//312 
f 117//117 312//312 493//493 
f 421//421 493//493 312//312 
f 312//312 120//120 122//122 
f 421//421 312//312 122//122 
f 492//492 490//490 313//313 
f 119//119 487//487 121//121 
f 94//94 143//143 119//119 
f 487//487 128//128 121//121 
f 122//122 121//121 128//128 
f 122//122 128//128 314//314 
f 421//421 122//122 314//314 
f 118//118 421//421 125//125 
f 124//124 118//118 125//125 
f 124//124 125//125 126//126 
f 124//124 126//126 315//315 
f 313//313 124//124 315//315 
f 496//496 185//185 86//86 
f 126//126 488//488 127//127 
f 315//315 126//126 127//127 
f 489//489 313//313 129//129 
f 315//315 127//127 129//129 
f 123//123 170//170 496//496 
f 128//128 316//316 314//314 
f 314//314 316//316 421//421 
f 127//127 486//486 485//485 
f 129//129 127//127 485//485 
f 316//316 131//131 132//132 
f 421//421 316//316 132//132 
f 486//486 421//421 318//318 
f 485//485 486//486 318//318 
f 485//485 318//318 484//484 
f 129//129 485//485 484//484 
f 133//133 134//134 131//131 
f 132//132 131//131 134//134 
f 318//318 421//421 319//319 
f 484//484 318//318 319//319 
f 484//484 319//319 483//483 
f 129//129 484//484 483//483 
f 489//489 129//129 320//320 
f 129//129 135//135 137//137 
f 320//320 129//129 137//137 
f 489//489 138//138 130//130 
f 259//259 130//130 138//138 
f 446//446 148//148 495//495 
f 94//94 495//495 148//148 
f 136//136 134//134 481//481 
f 421//421 136//136 481//481 
f 259//259 138//138 140//140 
f 304//304 259//259 140//140 
f 143//143 322//322 321//321 
f 481//481 321//321 480//480 
f 421//421 481//481 480//480 
f 135//135 139//139 320//320 
f 322//322 323//323 321//321 
f 480//480 321//321 323//323 
f 139//139 482//482 141//141 
f 139//139 141//141 142//142 
f 320//320 139//139 142//142 
f 141//141 482//482 479//479 
f 142//142 141//141 479//479 
f 482//482 421//421 145//145 
f 479//479 482//482 145//145 
f 94//94 146//146 143//143 
f 142//142 479//479 147//147 
f 320//320 142//142 147//147 
f 324//324 326//326 325//325 
f 145//145 421//421 149//149 
f 477//477 145//145 149//149 
f 320//320 147//147 475//475 
f 496//496 170//170 185//185 
f 326//326 474//474 325//325 
f 476//476 325//325 474//474 
f 150//150 151//151 328//328 
f 327//327 150//150 328//328 
f 156//156 153//153 474//474 
f 476//476 474//474 153//153 
f 151//151 421//421 329//329 
f 328//328 151//151 329//329 
f 328//328 329//329 473//473 
f 327//327 328//328 473//473 
f 327//327 473//473 155//155 
f 475//475 327//327 155//155 
f 329//329 421//421 157//157 
f 473//473 329//329 157//157 
f 473//473 157//157 331//331 
f 155//155 473//473 331//331 
f 158//158 470//470 333//333 
f 471//471 158//158 333//333 
f 160//160 159//159 332//332 
f 475//475 471//471 166//166 
f 467//467 168//168 159//159 
f 159//159 168//168 469//469 
f 163//163 469//469 353//353 
f 164//164 163//163 353//353 
f 164//164 353//353 202//202 
f 164//164 202//202 201//201 
f 334//334 164//164 201//201 
f 468//468 334//334 201//201 
f 468//468 201//201 436//436 
f 165//165 468//468 436//436 
f 166//166 165//165 466//466 
f 475//475 166//166 169//169 
f 337//337 465//465 467//467 
f 467//467 465//465 167//167 
f 167//167 352//352 168//168 
f 168//168 352//352 336//336 
f 336//336 353//353 469//469 
f 336//336 469//469 168//168 
f 197//197 202//202 353//353 
f 197//197 353//353 336//336 
f 197//197 201//201 202//202 
f 200//200 201//201 197//197 
f 200//200 436//436 201//201 
f 466//466 165//165 436//436 
f 466//466 436//436 200//200 
f 169//169 466//466 171//171 
f 169//169 171//171 172//172 
f 475//475 169//169 172//172 
f 475//475 172//172 338//338 
f 337//337 173//173 199//199 
f 337//337 199//199 465//465 
f 465//465 199//199 352//352 
f 336//336 352//352 435//435 
f 197//197 336//336 435//435 
f 171//171 466//466 200//200 
f 338//338 175//175 176//176 
f 475//475 338//338 176//176 
f 94//94 148//148 177//177 
f 94//94 177//177 464//464 
f 464//464 351//351 174//174 
f 174//174 351//351 339//339 
f 173//173 339//339 199//199 
f 339//339 351//351 198//198 
f 339//339 198//198 435//435 
f 435//435 352//352 199//199 
f 176//176 463//463 461//461 
f 340//340 176//176 461//461 
f 446//446 427//427 148//148 
f 177//177 148//148 427//427 
f 177//177 427//427 181//181 
f 177//177 181//181 178//178 
f 463//463 200//200 461//461 
f 462//462 341//341 195//195 
f 462//462 195//195 179//179 
f 185//185 433//433 186//186 
f 185//185 186//186 429//429 
f 185//185 429//429 335//335 
f 180//180 335//335 429//429 
f 180//180 429//429 187//187 
f 180//180 187//187 188//188 
f 180//180 188//188 342//342 
f 342//342 188//188 346//346 
f 342//342 346//346 427//427 
f 182//182 427//427 346//346 
f 182//182 346//346 189//189 
f 182//182 189//189 431//431 
f 343//343 182//182 431//431 
f 426//426 343//343 431//431 
f 181//181 434//434 198//198 
f 181//181 198//198 178//178 
f 350//350 198//198 434//434 
f 350//350 197//197 198//198 
f 350//350 200//200 197//197 
f 196//196 200//200 350//350 
f 195//195 341//341 200//200 
f 195//195 200//200 196//196 
f 183//183 426//426 431//431 
f 183//183 431//431 191//191 
f 184//184 183//183 191//191 
f 184//184 191//191 192//192 
f 344//344 184//184 192//192 
f 344//344 192//192 348//348 
f 344//344 348//348 161//161 
f 161//161 348//348 432//432 
f 161//161 432//432 428//428 
f 428//428 432//432 349//349 
f 428//428 349//349 185//185 
f 185//185 349//349 433//433 
f 194//194 190//190 430//430 
f 194//194 430//430 345//345 
f 345//345 430//430 188//188 
f 345//345 188//188 187//187 
f 194//194 347//347 190//190 
f 193//193 347//347 194//194 
f 192//192 347//347 193//193 
f 349//349 194//194 433//433 
f 432//432 194//194 349//349 
f 432//432 193//193 194//194 
f 348//348 192//192 193//193 
f 348//348 193//193 432//432 
f 191//191 431//431 347//347 
f 191//191 347//347 192//192 
f 431//431 190//190 347//347 
f 431//431 430//430 190//190 
f 431//431 189//189 430//430 
f 189//189 346//346 188//188 
f 189//189 188//188 430//430 
f 186//186 345//345 187//187 
f 186//186 187//187 429//429 
f 186//186 194//194 345//345 
f 433//433 194//194 186//186 
f 304//304 344//344 161//161 
f 304//304 140//140 184//184 
f 304//304 184//184 344//344 
f 140//140 179//179 183//183 
f 140//140 183//183 184//184 
f 195//195 426//426 183//183 
f 195//195 183//183 179//179 
f 426//426 195//195 196//196 
f 426//426 196//196 350//350 
f 426//426 350//350 343//343 
f 343//343 350//350 182//182 
f 182//182 350//350 434//434 
f 181//181 182//182 434//434 
f 181//181 427//427 182//182 
f 446//446 342//342 427//427 
f 449//449 180//180 342//342 
f 449//449 342//342 446//446 
f 449//449 335//335 180//180 
f 462//462 340//340 341//341 
f 340//340 461//461 341//341 
f 341//341 461//461 200//200 
f 198//198 351//351 178//178 
f 464//464 178//178 351//351 
f 177//177 178//178 464//464 
f 428//428 185//185 170//170 
f 140//140 138//138 179//179 
f 152//152 462//462 179//179 
f 152//152 179//179 138//138 
f 152//152 475//475 340//340 
f 152//152 340//340 462//462 
f 475//475 176//176 340//340 
f 176//176 175//175 463//463 
f 463//463 175//175 200//200 
f 198//198 197//197 435//435 
f 339//339 435//435 199//199 
f 173//173 174//174 339//339 
f 337//337 464//464 174//174 
f 337//337 174//174 173//173 
f 94//94 464//464 337//337 
f 161//161 428//428 170//170 
f 172//172 175//175 338//338 
f 172//172 171//171 175//175 
f 175//175 171//171 200//200 
f 465//465 352//352 167//167 
f 166//166 466//466 169//169 
f 467//467 167//167 168//168 
f 471//471 333//333 165//165 
f 471//471 165//165 166//166 
f 333//333 470//470 468//468 
f 333//333 468//468 165//165 
f 470//470 421//421 334//334 
f 470//470 334//334 468//468 
f 421//421 164//164 334//334 
f 421//421 162//162 163//163 
f 421//421 163//163 164//164 
f 162//162 332//332 469//469 
f 162//162 469//469 163//163 
f 159//159 469//469 332//332 
f 337//337 467//467 159//159 
f 421//421 154//154 162//162 
f 332//332 162//162 154//154 
f 302//302 185//185 335//335 
f 155//155 471//471 475//475 
f 158//158 157//157 470//470 
f 157//157 421//421 470//470 
f 154//154 472//472 332//332 
f 330//330 160//160 332//332 
f 330//330 332//332 472//472 
f 337//337 160//160 330//330 
f 337//337 159//159 160//160 
f 155//155 331//331 471//471 
f 331//331 158//158 471//471 
f 331//331 157//157 158//158 
f 156//156 337//337 330//330 
f 154//154 153//153 472//472 
f 153//153 330//330 472//472 
f 156//156 330//330 153//153 
f 421//421 476//476 154//154 
f 476//476 153//153 154//154 
f 337//337 156//156 324//324 
f 489//489 152//152 138//138 
f 489//489 475//475 152//152 
f 150//150 149//149 151//151 
f 149//149 421//421 151//151 
f 326//326 156//156 474//474 
f 324//324 156//156 326//326 
f 146//146 337//337 324//324 
f 94//94 337//337 146//146 
f 489//489 320//320 475//475 
f 147//147 477//477 327//327 
f 147//147 327//327 475//475 
f 477//477 150//150 327//327 
f 477//477 149//149 150//150 
f 421//421 144//144 476//476 
f 144//144 325//325 476//476 
f 147//147 479//479 477//477 
f 479//479 145//145 477//477 
f 144//144 478//478 325//325 
f 324//324 325//325 478//478 
f 143//143 146//146 324//324 
f 449//449 112//112 335//335 
f 302//302 335//335 112//112 
f 322//322 324//324 478//478 
f 143//143 324//324 322//322 
f 480//480 144//144 421//421 
f 480//480 323//323 478//478 
f 480//480 478//478 144//144 
f 322//322 478//478 323//323 
f 137//137 135//135 320//320 
f 135//135 483//483 139//139 
f 483//483 482//482 139//139 
f 481//481 134//134 321//321 
f 143//143 321//321 134//134 
f 483//483 319//319 482//482 
f 319//319 421//421 482//482 
f 133//133 143//143 134//134 
f 421//421 132//132 136//136 
f 134//134 136//136 132//132 
f 129//129 483//483 135//135 
f 123//123 161//161 170//170 
f 304//304 161//161 123//123 
f 316//316 317//317 131//131 
f 317//317 133//133 131//131 
f 143//143 133//133 317//317 
f 316//316 128//128 317//317 
f 143//143 317//317 128//128 
f 127//127 488//488 486//486 
f 488//488 421//421 486//486 
f 487//487 143//143 128//128 
f 313//313 315//315 129//129 
f 126//126 125//125 488//488 
f 125//125 421//421 488//488 
f 313//313 490//490 124//124 
f 490//490 118//118 124//124 
f 119//119 143//143 487//487 
f 116//116 489//489 130//130 
f 116//116 313//313 489//489 
f 122//122 120//120 121//121 
f 119//119 121//121 120//120 
f 492//492 311//311 490//490 
f 311//311 118//118 490//490 
f 116//116 491//491 313//313 
f 116//116 115//115 491//491 
f 492//492 310//310 311//311 
f 310//310 118//118 311//311 
f 114//114 119//119 309//309 
f 421//421 111//111 493//493 
f 111//111 308//308 309//309 
f 111//111 309//309 493//493 
f 308//308 114//114 309//309 
f 109//109 114//114 308//308 
f 101//101 113//113 115//115 
f 107//107 306//306 101//101 
f 109//109 110//110 105//105 
f 107//107 497//497 306//306 
f 497//497 108//108 306//306 
f 106//106 110//110 305//305 
f 105//105 110//110 106//106 
f 101//101 497//497 107//107 
f 307//307 498//498 305//305 
f 106//106 305//305 498//498 
f 421//421 303//303 307//307 
f 303//303 103//103 498//498 
f 303//303 498//498 307//307 
f 103//103 106//106 498//498 
f 105//105 106//106 103//103 
f 227//227 304//304 123//123 
f 227//227 259//259 304//304 
f 499//499 501//501 104//104 
f 501//501 421//421 104//104 
f 303//303 102//102 103//103 
f 105//105 103//103 102//102 
f 100//100 99//99 499//499 
f 99//99 501//501 499//499 
f 297//297 500//500 105//105 
f 94//94 500//500 297//297 
f 101//101 425//425 100//100 
f 425//425 301//301 99//99 
f 425//425 99//99 100//100 
f 301//301 98//98 501//501 
f 301//301 501//501 99//99 
f 98//98 421//421 501//501 
f 97//97 502//502 102//102 
f 300//300 102//102 502//502 
f 449//449 96//96 112//112 
f 302//302 112//112 96//96 
f 425//425 299//299 301//301 
f 299//299 91//91 98//98 
f 299//299 98//98 301//301 
f 91//91 421//421 98//98 
f 421//421 298//298 97//97 
f 298//298 502//502 97//97 
f 93//93 424//424 425//425 
f 424//424 92//92 299//299 
f 424//424 299//299 425//425 
f 92//92 91//91 299//299 
f 90//90 94//94 297//297 
f 90//90 495//495 94//94 
f 89//89 93//93 130//130 
f 89//89 424//424 93//93 
f 421//421 419//419 298//298 
f 423//423 298//298 419//419 
f 71//71 86//86 302//302 
f 89//89 88//88 422//422 
f 92//92 85//85 91//91 
f 85//85 421//421 91//91 
f 296//296 297//297 423//423 
f 78//78 297//297 296//296 
f 75//75 90//90 78//78 
f 75//75 495//495 90//90 
f 411//411 89//89 130//130 
f 411//411 88//88 89//89 
f 420//420 421//421 85//85 
f 71//71 496//496 86//86 
f 420//420 294//294 421//421 
f 78//78 296//296 295//295 
f 71//71 302//302 416//416 
f 83//83 417//417 419//419 
f 417//417 291//291 419//419 
f 82//82 74//74 81//81 
f 74//74 290//290 418//418 
f 74//74 418//418 81//81 
f 290//290 292//292 418//418 
f 290//290 73//73 292//292 
f 73//73 80//80 292//292 
f 73//73 287//287 80//80 
f 287//287 79//79 80//80 
f 287//287 2//2 79//79 
f 2//2 414//414 417//417 
f 2//2 417//417 79//79 
f 414//414 76//76 291//291 
f 414//414 291//291 417//417 
f 78//78 291//291 76//76 
f 72//72 76//76 288//288 
f 75//75 380//380 77//77 
f 446//446 77//77 380//380 
f 70//70 286//286 289//289 
f 286//286 413//413 289//289 
f 413//413 67//67 74//74 
f 413//413 74//74 289//289 
f 67//67 2//2 74//74 
f 2//2 287//287 73//73 
f 414//414 412//412 76//76 
f 288//288 76//76 412//412 
f 286//286 68//68 413//413 
f 68//68 67//67 413//413 
f 66//66 72//72 288//288 
f 33//33 72//72 66//66 
f 277//277 416//416 96//96 
f 411//411 57//57 70//70 
f 57//57 286//286 70//70 
f 66//66 288//288 412//412 
f 57//57 68//68 286//286 
f 68//68 65//65 67//67 
f 65//65 2//2 67//67 
f 2//2 409//409 69//69 
f 409//409 285//285 412//412 
f 409//409 412//412 69//69 
f 66//66 412//412 285//285 
f 409//409 410//410 285//285 
f 66//66 285//285 410//410 
f 449//449 7//7 96//96 
f 277//277 96//96 7//7 
f 64//64 63//63 65//65 
f 63//63 2//2 65//65 
f 409//409 61//61 410//410 
f 283//283 410//410 61//61 
f 284//284 410//410 283//283 
f 57//57 406//406 64//64 
f 406//406 62//62 64//64 
f 62//62 60//60 63//63 
f 62//62 63//63 64//64 
f 60//60 2//2 63//63 
f 2//2 407//407 409//409 
f 407//407 61//61 409//409 
f 280//280 404//404 60//60 
f 404//404 2//2 60//60 
f 2//2 56//56 407//407 
f 56//56 281//281 407//407 
f 405//405 58//58 281//281 
f 123//123 71//71 22//22 
f 270//270 401//401 57//57 
f 401//401 406//406 57//57 
f 401//401 279//279 280//280 
f 401//401 280//280 406//406 
f 279//279 404//404 280//280 
f 259//259 274//274 415//415 
f 270//270 415//415 274//274 
f 278//278 53//53 54//54 
f 41//41 52//52 401//401 
f 41//41 50//50 52//52 
f 2//2 48//48 51//51 
f 48//48 54//54 51//51 
f 41//41 275//275 50//50 
f 275//275 276//276 50//50 
f 402//402 278//278 49//49 
f 2//2 43//43 48//48 
f 43//43 47//47 48//48 
f 270//270 41//41 401//401 
f 41//41 44//44 275//275 
f 44//44 46//46 275//275 
f 399//399 42//42 44//44 
f 42//42 39//39 44//44 
f 43//43 273//273 45//45 
f 400//400 45//45 273//273 
f 41//41 398//398 399//399 
f 398//398 42//42 399//399 
f 398//398 40//40 42//42 
f 40//40 39//39 42//42 
f 397//397 272//272 273//273 
f 400//400 273//273 272//272 
f 270//270 38//38 41//41 
f 38//38 398//398 41//41 
f 38//38 40//40 398//398 
f 40//40 395//395 39//39 
f 395//395 2//2 39//39 
f 2//2 37//37 397//397 
f 37//37 271//271 272//272 
f 37//37 272//272 397//397 
f 34//34 400//400 272//272 
f 34//34 272//272 271//271 
f 34//34 402//402 400//400 
f 33//33 402//402 34//34 
f 218//218 270//270 274//274 
f 218//218 267//267 36//36 
f 218//218 36//36 270//270 
f 267//267 31//31 35//35 
f 31//31 394//394 395//395 
f 31//31 395//395 35//35 
f 394//394 2//2 395//395 
f 10//10 33//33 34//34 
f 10//10 380//380 33//33 
f 31//31 392//392 394//394 
f 392//392 2//2 394//394 
f 393//393 32//32 268//268 
f 269//269 32//32 393//393 
f 34//34 269//269 393//393 
f 19//19 29//29 267//267 
f 25//25 34//34 393//393 
f 29//29 27//27 392//392 
f 27//27 2//2 392//392 
f 25//25 266//266 265//265 
f 10//10 34//34 26//26 
f 19//19 21//21 28//28 
f 28//28 263//263 27//27 
f 263//263 2//2 27//27 
f 2//2 390//390 391//391 
f 390//390 264//264 391//391 
f 10//10 26//26 25//25 
f 21//21 388//388 389//389 
f 388//388 263//263 389//389 
f 19//19 18//18 21//21 
f 2//2 261//261 262//262 
f 261//261 20//20 262//262 
f 218//218 381//381 19//19 
f 2//2 260//260 261//261 
f 260//260 386//386 20//20 
f 260//260 20//20 261//261 
f 16//16 20//20 386//386 
f 381//381 258//258 18//18 
f 258//258 14//14 15//15 
f 14//14 13//13 15//15 
f 10//10 16//16 1//1 
f 214//214 10//10 1//1 
f 214//214 380//380 10//10 
f 255//255 256//256 257//257 
f 8//8 257//257 256//256 
f 2//2 3//3 255//255 
f 3//3 5//5 256//256 
f 3//3 256//256 255//255 
f 8//8 256//256 5//5 
f 214//214 1//1 220//220 
f 1//1 8//8 5//5 
f 211//211 253//253 251//251 
f 253//253 254//254 252//252 
f 254//254 2//2 252//252 
f 2//2 204//204 3//3 
f 204//204 4//4 5//5 
f 204//204 5//5 3//3 
f 1//1 5//5 4//4 
f 211//211 441//441 253//253 
f 441//441 357//357 253//253 
f 357//357 254//254 253//253 
