# WaveFront *.obj file (generated by Autodesk ATF)

mtllib counter.mtl

g counter-top

v 1450.000000 -75.000000 1425.000000
v 1450.000000 -75.000000 -1375.000000
v 1450.000000 525.000000 -1375.000000
v 1450.000000 525.000000 1425.000000
v 850.000000 -75.000000 1425.000000
v 850.000000 525.000000 1425.000000
v 850.000000 -75.000000 -775.000000
v 850.000000 525.000000 -775.000000
v -1850.000000 -75.000000 -775.000000
v -1850.000000 525.000000 -775.000000
v -1850.000000 -75.000000 -1375.000000
v -1850.000000 525.000000 -1375.000000
vt 0.000000 0.000000 0.000000
vt 280.000000 0.000000 0.000000
vt 0.000000 60.000000 0.000000
vt 280.000000 60.000000 0.000000
vt 0.000000 0.000000 0.000000
vt 60.000000 -0.000000 0.000000
vt -0.000000 60.000000 0.000000
vt 60.000000 60.000000 0.000000
vt 0.000000 -0.000000 0.000000
vt 220.000000 0.000000 0.000000
vt 0.000000 60.000000 0.000000
vt 220.000000 60.000000 0.000000
vt 0.000000 0.000000 0.000000
vt 270.000000 0.000000 0.000000
vt 0.000000 60.000000 0.000000
vt 270.000000 60.000000 0.000000
vt 0.000000 0.000000 0.000000
vt 60.000000 -0.000000 0.000000
vt -0.000000 60.000000 0.000000
vt 60.000000 60.000000 0.000000
vt 0.000000 0.000000 0.000000
vt 330.000000 0.000000 0.000000
vt 0.000000 60.000000 0.000000
vt 330.000000 60.000000 0.000000
vt 140.000000 165.000000 0.000000
vt -140.000000 165.000000 0.000000
vt -80.000000 105.000000 0.000000
vt -140.000000 -165.000000 0.000000
vt -80.000000 -165.000000 0.000000
vt 140.000000 105.000000 0.000000
vt -165.000000 -80.000000 0.000000
vt -165.000000 -140.000000 0.000000
vt 105.000000 -80.000000 0.000000
vt 165.000000 -140.000000 0.000000
vt 165.000000 140.000000 0.000000
vt 105.000000 140.000000 0.000000
vn 0.100000 0.000000 0.000000
vn 0.100000 0.000000 0.000000
vn 0.100000 0.000000 0.000000
vn 0.100000 0.000000 0.000000
vn 0.000000 -0.000000 0.100000
vn 0.000000 -0.000000 0.100000
vn 0.000000 -0.000000 0.100000
vn 0.000000 -0.000000 0.100000
vn -0.100000 0.000000 0.000000
vn -0.100000 0.000000 0.000000
vn -0.100000 0.000000 0.000000
vn -0.100000 0.000000 0.000000
vn 0.000000 -0.000000 0.100000
vn 0.000000 -0.000000 0.100000
vn 0.000000 -0.000000 0.100000
vn 0.000000 -0.000000 0.100000
vn -0.100000 0.000000 0.000000
vn -0.100000 0.000000 0.000000
vn -0.100000 0.000000 0.000000
vn -0.100000 0.000000 0.000000
vn 0.000000 0.000000 -0.100000
vn 0.000000 0.000000 -0.100000
vn 0.000000 0.000000 -0.100000
vn 0.000000 0.000000 -0.100000
vn 0.000000 0.100000 0.000000
vn 0.000000 0.100000 0.000000
vn 0.000000 0.100000 0.000000
vn 0.000000 0.100000 0.000000
vn 0.000000 0.100000 0.000000
vn 0.000000 0.100000 0.000000
vn 0.000000 -0.100000 0.000000
vn 0.000000 -0.100000 0.000000
vn 0.000000 -0.100000 0.000000
vn 0.000000 -0.100000 0.000000
vn 0.000000 -0.100000 0.000000
vn 0.000000 -0.100000 0.000000
usemtl Steel_-_Satin
f 1/1/1 2/2/2 4/3/3
f 4/3/3 2/2/2 3/4/4
f 5/5/5 1/6/6 6/7/7
f 6/7/7 1/6/6 4/8/8
f 7/9/9 5/10/10 8/11/11
f 8/11/11 5/10/10 6/12/12
f 9/13/13 7/14/14 10/15/15
f 10/15/15 7/14/14 8/16/16
f 11/17/17 9/18/18 12/19/19
f 12/19/19 9/18/18 10/20/20
f 2/21/21 11/22/22 3/23/23
f 3/23/23 11/22/22 12/24/24
f 4/25/25 3/26/26 8/27/27
f 8/27/27 3/26/26 12/28/28
f 8/27/27 12/28/28 10/29/29
f 8/27/27 6/30/30 4/25/25
f 9/31/31 11/32/32 7/33/33
f 7/33/33 11/32/32 2/34/34
f 7/33/33 2/34/34 1/35/35
f 1/35/35 5/36/36 7/33/33
g counter-flap

v 1450.000000 525.000000 1425.000000
v 1450.000000 525.000000 1925.000000
v 1450.000000 505.000000 1925.000000
v 1450.000000 505.000000 1425.000000
v 850.000000 525.000000 1425.000000
v 850.000000 505.000000 1425.000000
v 850.000000 525.000000 1925.000000
v 850.000000 505.000000 1925.000000
vt 0.000000 0.000000 0.000000
vt 50.000000 0.000000 0.000000
vt 0.000000 2.000000 0.000000
vt 50.000000 2.000000 0.000000
vt 0.000000 0.000000 0.000000
vt 60.000000 0.000000 0.000000
vt 0.000000 2.000000 0.000000
vt 60.000000 2.000000 0.000000
vt 0.000000 0.000000 0.000000
vt 50.000000 0.000000 0.000000
vt 0.000000 2.000000 0.000000
vt 50.000000 2.000000 0.000000
vt 0.000000 0.000000 0.000000
vt 60.000000 0.000000 0.000000
vt 0.000000 2.000000 0.000000
vt 60.000000 2.000000 0.000000
vt 30.000000 25.000000 0.000000
vt -30.000000 25.000000 0.000000
vt 30.000000 -25.000000 0.000000
vt -30.000000 -25.000000 0.000000
vt -25.000000 -30.000000 0.000000
vt 25.000000 -30.000000 0.000000
vt -25.000000 30.000000 0.000000
vt 25.000000 30.000000 0.000000
vn 0.100000 0.000000 0.000000
vn 0.100000 0.000000 0.000000
vn 0.100000 0.000000 0.000000
vn 0.100000 0.000000 0.000000
vn 0.000000 0.000000 -0.100000
vn 0.000000 0.000000 -0.100000
vn 0.000000 0.000000 -0.100000
vn 0.000000 0.000000 -0.100000
vn -0.100000 0.000000 0.000000
vn -0.100000 0.000000 0.000000
vn -0.100000 0.000000 0.000000
vn -0.100000 0.000000 0.000000
vn 0.000000 0.000000 0.100000
vn 0.000000 0.000000 0.100000
vn 0.000000 0.000000 0.100000
vn 0.000000 0.000000 0.100000
vn 0.000000 0.100000 0.000000
vn 0.000000 0.100000 0.000000
vn 0.000000 0.100000 0.000000
vn 0.000000 0.100000 0.000000
vn 0.000000 -0.100000 0.000000
vn 0.000000 -0.100000 0.000000
vn 0.000000 -0.100000 0.000000
vn 0.000000 -0.100000 0.000000
f 13/37/37 14/38/38 16/39/39
f 16/39/39 14/38/38 15/40/40
f 17/41/41 13/42/42 18/43/43
f 18/43/43 13/42/42 16/44/44
f 19/45/45 17/46/46 20/47/47
f 20/47/47 17/46/46 18/48/48
f 14/49/49 19/50/50 15/51/51
f 15/51/51 19/50/50 20/52/52
f 19/53/53 14/54/54 17/55/55
f 17/55/55 14/54/54 13/56/56
f 20/57/57 18/58/58 15/59/59
f 15/59/59 18/58/58 16/60/60
# 20 vertices
# 60 texture params
# 60 normals
# 32 facets

# 2 groups
